<?xml version="1.0" encoding="UTF-8" standalone="no"?>
<!-- Created with Inkscape (http://www.inkscape.org/) -->
<svg
   xmlns:svg="http://www.w3.org/2000/svg"
   xmlns="http://www.w3.org/2000/svg"
   xmlns:xlink="http://www.w3.org/1999/xlink"
   version="1.0"
   width="73"
   height="112"
   viewBox="0 0 72.944336 111.479"
   id="Layer_1"
   xml:space="preserve"><defs
   id="defs232">
	
	

		
		
	
			<defs
   id="defs29">
				<path
   d="M 72.00293,36.545898 C 72.00293,56.426758 55.883789,72.54248 36.001953,72.54248 C 16.120117,72.54248 0.0039063,56.426758 0.0039063,36.545898 C 0.0039063,16.658203 16.120117,0.5419921 36.001953,0.5419921 C 55.883789,0.5419921 72.00293,16.658203 72.00293,36.545898 z "
   id="SVGID_1_" />
			</defs>
			<clipPath
   id="SVGID_2_">
				<use
   style="overflow:visible"
   id="use33"
   x="0"
   y="0"
   width="72.944336"
   height="111.479"
   xlink:href="#SVGID_1_" />
			</clipPath>
			
		
			
			
		
				
				
			</defs>
<g
   transform="matrix(0.9992427,0,0,0.99924,-3.9033418e-3,0.3028104)"
   id="g3685"><g
     clip-path="url(#SVGID_2_)"
     id="g35">
				<path
   d="M 72.944336,36.477539 C 72.944336,56.620117 56.616211,72.950684 36.472656,72.950684 C 16.329102,72.950684 0,56.620117 0,36.477539 C 0,16.329102 16.329102,0 36.472656,0 C 56.616211,0 72.944336,16.329102 72.944336,36.477539 z "
   style="fill:#b2b4b6"
   id="path37" />
				<path
   d="M 72.875,36.455566 C 72.875,56.539062 56.594727,72.820801 36.510742,72.820801 C 16.426758,72.820801 0.1459961,56.539063 0.1459961,36.455566 C 0.1459961,16.366699 16.426758,0.0859375 36.510742,0.0859375 C 56.594727,0.0859375 72.875,16.366699 72.875,36.455566 z "
   style="fill:#b2b4b7"
   id="path39" />
				<path
   d="M 72.806641,36.433594 C 72.806641,56.45752 56.574219,72.691895 36.548828,72.691895 C 16.524414,72.691895 0.2919922,56.45752 0.2919922,36.433594 C 0.2919922,16.404297 16.524414,0.171875 36.548828,0.171875 C 56.574219,0.171875 72.806641,16.404297 72.806641,36.433594 z "
   style="fill:#b2b4b7"
   id="path41" />
				<path
   d="M 72.737305,36.412109 C 72.737305,56.376953 56.552734,72.562012 36.587891,72.562012 C 16.621582,72.562012 0.4375,56.376953 0.4375,36.412109 C 0.4375,16.441895 16.621582,0.256836 36.587891,0.256836 C 56.552734,0.2568359 72.737305,16.441895 72.737305,36.412109 z "
   style="fill:#b3b5b8"
   id="path43" />
				<path
   d="M 72.668945,36.390137 C 72.668945,56.29541 56.532226,72.432129 36.625976,72.432129 C 16.719238,72.432129 0.583496,56.29541 0.583496,36.390137 C 0.583496,16.479492 16.719238,0.3427734 36.625976,0.3427734 C 56.532227,0.3427734 72.668945,16.479492 72.668945,36.390137 z "
   style="fill:#b4b6b8"
   id="path45" />
				<path
   d="M 72.599609,36.368652 C 72.599609,56.214355 56.510742,72.303223 36.664063,72.303223 C 16.816895,72.303223 0.7290039,56.214355 0.7290039,36.368652 C 0.7290039,16.517578 16.816895,0.4287109 36.664063,0.4287109 C 56.510742,0.4287109 72.599609,16.517578 72.599609,36.368652 z "
   style="fill:#b5b7b9"
   id="path47" />
				<path
   d="M 72.530273,36.34668 C 72.530273,56.133301 56.490234,72.17334 36.702637,72.17334 C 16.914551,72.17334 0.875,56.133301 0.875,36.34668 C 0.875,16.555176 16.914551,0.5141602 36.702637,0.5141602 C 56.490234,0.5141602 72.530273,16.555176 72.530273,36.34668 z "
   style="fill:#b6b8ba"
   id="path49" />
				<path
   d="M 72.460938,36.324707 C 72.460938,56.052246 56.46875,72.043457 36.740723,72.043457 C 17.011719,72.043457 1.0209961,56.052246 1.0209961,36.324707 C 1.0209961,16.592773 17.011719,0.6000976 36.740723,0.6000976 C 56.46875,0.6000977 72.460938,16.592773 72.460938,36.324707 z "
   style="fill:#b7b9bb"
   id="path51" />
				<path
   d="M 72.392578,36.303223 C 72.392578,55.970703 56.448242,71.914551 36.779297,71.914551 C 17.109375,71.914551 1.1665038,55.970703 1.1665038,36.303223 C 1.1665038,16.630371 17.109375,0.6855469 36.779297,0.6855469 C 56.448242,0.6855469 72.392578,16.630371 72.392578,36.303223 z "
   style="fill:#b7b9bc"
   id="path53" />
				<path
   d="M 72.323242,36.28125 C 72.323242,55.889648 56.426758,71.784668 36.817383,71.784668 C 17.207031,71.784668 1.3125,55.889648 1.3125,36.28125 C 1.3125,16.667969 17.207031,0.7714844 36.817383,0.7714844 C 56.426758,0.7714844 72.323242,16.667969 72.323242,36.28125 z "
   style="fill:#b7b9bc"
   id="path55" />
				<path
   d="M 72.298828,36.262207 C 72.298828,55.829102 56.436523,71.689941 36.869629,71.689941 C 17.300781,71.689941 1.4404297,55.829102 1.4404297,36.262207 C 1.4404297,16.691406 17.300781,0.8286132 36.869629,0.8286132 C 56.436523,0.8286133 72.298828,16.691406 72.298828,36.262207 z "
   style="fill:#b8babc"
   id="path57" />
				<path
   d="M 72.274414,36.243164 C 72.274414,55.767578 56.446289,71.594238 36.92041,71.594238 C 17.394531,71.594238 1.5678711,55.767578 1.5678711,36.243164 C 1.5678711,16.713867 17.394531,0.8857422 36.92041,0.8857422 C 56.446289,0.8857422 72.274414,16.713867 72.274414,36.243164 z "
   style="fill:#b9bbbd"
   id="path59" />
				<path
   d="M 72.25,36.223633 C 72.25,55.706543 56.456055,71.499512 36.972168,71.499512 C 17.488281,71.499512 1.6953125,55.706543 1.6953125,36.223633 C 1.6953125,16.736816 17.488281,0.9423828 36.972168,0.9423828 C 56.456055,0.9423828 72.25,16.736816 72.25,36.223633 z "
   style="fill:#babcbe"
   id="path61" />
				<path
   d="M 72.225586,36.205566 C 72.225586,55.645508 56.46582,71.404785 37.024414,71.404785 C 17.582031,71.404785 1.8232421,55.645508 1.8232421,36.205566 C 1.8232421,16.760254 17.582031,0.9995117 37.024414,0.9995117 C 56.46582,0.9995117 72.225586,16.760254 72.225586,36.205566 z "
   style="fill:#bbbdbf"
   id="path63" />
				<path
   d="M 72.201172,36.186523 C 72.201172,55.584961 56.475586,71.310059 37.076172,71.310059 C 17.675781,71.310059 1.9516602,55.584961 1.9516602,36.186523 C 1.9516602,16.782715 17.675781,1.0571289 37.076172,1.0571289 C 56.475586,1.0571289 72.201172,16.782715 72.201172,36.186523 z "
   style="fill:#bcbdc0"
   id="path65" />
				<path
   d="M 72.176758,36.16748 C 72.176758,55.523438 56.484375,71.214355 37.12793,71.214355 C 17.769531,71.214355 2.0786133,55.523438 2.0786133,36.16748 C 2.0786133,16.805664 17.769531,1.1142578 37.12793,1.1142578 C 56.484375,1.1142578 72.176758,16.805664 72.176758,36.16748 z "
   style="fill:#bcbec0"
   id="path67" />
				<path
   d="M 72.152344,36.147949 C 72.152344,55.462402 56.494141,71.119629 37.179687,71.119629 C 17.862793,71.119629 2.2060547,55.462402 2.2060547,36.147949 C 2.2060547,16.828613 17.862793,1.1708984 37.179687,1.1708984 C 56.494141,1.1708984 72.152344,16.828613 72.152344,36.147949 z "
   style="fill:#bdbfc1"
   id="path69" />
				<path
   d="M 72.12793,36.128906 C 72.12793,55.401856 56.503906,71.024902 37.231445,71.024902 C 17.956543,71.024902 2.3344726,55.401856 2.3344726,36.128906 C 2.3344726,16.852051 17.956543,1.2280274 37.231445,1.2280274 C 56.503906,1.2280273 72.12793,16.852051 72.12793,36.128906 z "
   style="fill:#bec0c2"
   id="path71" />
				<path
   d="M 72.103516,36.110352 C 72.103516,55.341309 56.513672,70.930176 37.283203,70.930176 C 18.050781,70.930176 2.4624023,55.341309 2.4624023,36.110352 C 2.4624023,16.875 18.050781,1.2856446 37.283203,1.2856446 C 56.513672,1.2856445 72.103516,16.875 72.103516,36.110352 z "
   style="fill:#bfc1c3"
   id="path73" />
				<path
   d="M 72.079102,36.091309 C 72.079102,55.279785 56.523438,70.834473 37.334961,70.834473 C 18.144531,70.834473 2.5893555,55.279785 2.5893555,36.091309 C 2.5893555,16.897949 18.144531,1.3422852 37.334961,1.3422852 C 56.523438,1.3422852 72.079102,16.897949 72.079102,36.091309 z "
   style="fill:#c0c2c4"
   id="path75" />
				<path
   d="M 72.054688,36.072266 C 72.054688,55.218262 56.532227,70.739746 37.385742,70.739746 C 18.237793,70.739746 2.7172852,55.218262 2.7172852,36.072266 C 2.7172852,16.920898 18.237793,1.3989258 37.385742,1.3989258 C 56.532227,1.3989258 72.054688,16.920898 72.054688,36.072266 z "
   style="fill:#c1c2c4"
   id="path77" />
				<path
   d="M 72.030273,36.053223 C 72.030273,55.157715 56.542969,70.64502 37.438477,70.64502 C 18.331543,70.64502 2.8452148,55.157715 2.8452148,36.053223 C 2.8452148,16.943848 18.331543,1.456543 37.438477,1.456543 C 56.542969,1.456543 72.030273,16.943848 72.030273,36.053223 z "
   style="fill:#c1c3c5"
   id="path79" />
				<path
   d="M 72.005859,36.034668 C 72.005859,55.097168 56.552734,70.549316 37.490234,70.549316 C 18.425293,70.549316 2.9726563,55.097168 2.9726563,36.034668 C 2.9726563,16.967285 18.425293,1.5136719 37.490234,1.5136719 C 56.552734,1.5136719 72.005859,16.967285 72.005859,36.034668 z "
   style="fill:#c2c4c6"
   id="path81" />
				<path
   d="M 71.981445,36.015137 C 71.981445,55.035645 56.561523,70.45459 37.541992,70.45459 C 18.519043,70.45459 3.1000977,55.035645 3.1000977,36.015137 C 3.1000977,16.990234 18.519043,1.5703125 37.541992,1.5703125 C 56.561523,1.5703125 71.981445,16.990234 71.981445,36.015137 z "
   style="fill:#c3c5c7"
   id="path83" />
				<path
   d="M 71.957031,35.996094 C 71.957031,54.974609 56.571289,70.359863 37.592774,70.359863 C 18.612793,70.359863 3.2280274,54.974609 3.2280274,35.996094 C 3.2280274,17.012695 18.612793,1.6274415 37.592774,1.6274415 C 56.571289,1.6274414 71.957031,17.012695 71.957031,35.996094 z "
   style="fill:#c4c6c8"
   id="path85" />
				<path
   d="M 71.932617,35.977051 C 71.932617,54.914063 56.581055,70.26416 37.645508,70.26416 C 18.706543,70.26416 3.355957,54.914062 3.355957,35.977051 C 3.355957,17.036133 18.706543,1.6845703 37.645508,1.6845703 C 56.581055,1.6845703 71.932617,17.036133 71.932617,35.977051 z "
   style="fill:#c5c6c8"
   id="path87" />
				<path
   d="M 71.90918,35.958008 C 71.90918,54.853027 56.59082,70.169434 37.696289,70.169434 C 18.800293,70.169434 3.4833985,54.853027 3.4833985,35.958008 C 3.4833985,17.059082 18.800293,1.7416992 37.696289,1.7416992 C 56.59082,1.7416992 71.90918,17.059082 71.90918,35.958008 z "
   style="fill:#c5c7c9"
   id="path89" />
				<path
   d="M 71.884766,35.939453 C 71.884766,54.791992 56.600586,70.074707 37.749023,70.074707 C 18.894043,70.074707 3.6113281,54.791992 3.6113281,35.939453 C 3.6113281,17.082031 18.894043,1.7988281 37.749023,1.7988281 C 56.600586,1.7988281 71.884766,17.082031 71.884766,35.939453 z "
   style="fill:#c6c8ca"
   id="path91" />
				<path
   d="M 71.860352,35.92041 C 71.860352,54.730957 56.610352,69.979981 37.799805,69.979981 C 18.987793,69.979981 3.7387695,54.730957 3.7387695,35.92041 C 3.7387695,17.104981 18.987793,1.8559571 37.799805,1.8559571 C 56.610352,1.855957 71.860352,17.104981 71.860352,35.92041 z "
   style="fill:#c7c9cb"
   id="path93" />
				<path
   d="M 71.835937,35.901367 C 71.835937,54.669922 56.619141,69.884277 37.851562,69.884277 C 19.081543,69.884277 3.8666992,54.669922 3.8666992,35.901367 C 3.8666992,17.12793 19.081543,1.9130859 37.851562,1.9130859 C 56.619141,1.9130859 71.835937,17.12793 71.835937,35.901367 z "
   style="fill:#c8cacc"
   id="path95" />
				<path
   d="M 71.811523,35.882324 C 71.811523,54.608887 56.628906,69.789551 37.90332,69.789551 C 19.175293,69.789551 3.9946289,54.608887 3.9946289,35.882324 C 3.9946289,17.150879 19.175293,1.9702148 37.90332,1.9702148 C 56.628906,1.9702148 71.811523,17.150879 71.811523,35.882324 z "
   style="fill:#c9cbcc"
   id="path97" />
				<path
   d="M 71.787109,35.863281 C 71.787109,54.547852 56.638672,69.694824 37.955078,69.694824 C 19.268555,69.694824 4.1220703,54.547852 4.1220703,35.863281 C 4.1220703,17.173828 19.268555,2.0273438 37.955078,2.0273438 C 56.638672,2.0273438 71.787109,17.173828 71.787109,35.863281 z "
   style="fill:#cacbcd"
   id="path99" />
				<path
   d="M 71.762695,35.844238 C 71.762695,54.486816 56.648438,69.599121 38.006836,69.599121 C 19.362793,69.599121 4.25,54.486816 4.25,35.844238 C 4.25,17.196777 19.362793,2.0844727 38.006836,2.0844727 C 56.648438,2.0844727 71.762695,17.196777 71.762695,35.844238 z "
   style="fill:#cbccce"
   id="path101" />
				<path
   d="M 71.738281,35.825195 C 71.738281,54.425781 56.658203,69.504395 38.058594,69.504395 C 19.456543,69.504395 4.3774415,54.425781 4.3774415,35.825195 C 4.3774415,17.219727 19.456543,2.1416015 38.058594,2.1416015 C 56.658203,2.1416016 71.738281,17.219727 71.738281,35.825195 z "
   style="fill:#cbcdcf"
   id="path103" />
				<path
   d="M 71.713867,35.806152 C 71.713867,54.364746 56.667969,69.409668 38.110352,69.409668 C 19.549805,69.409668 4.5053711,54.364746 4.5053711,35.806152 C 4.5053711,17.242676 19.549805,2.1987304 38.110352,2.1987304 C 56.667969,2.1987305 71.713867,17.242676 71.713867,35.806152 z "
   style="fill:#ccced0"
   id="path105" />
				<path
   d="M 71.689453,35.787598 C 71.689453,54.303711 56.677734,69.313965 38.162109,69.313965 C 19.643555,69.313965 4.6328124,54.303711 4.6328124,35.787598 C 4.6328124,17.266113 19.643555,2.2553711 38.162109,2.2553711 C 56.677734,2.2553711 71.689453,17.266113 71.689453,35.787598 z "
   style="fill:#cdcfd0"
   id="path107" />
				<path
   d="M 71.665039,35.768555 C 71.665039,54.243164 56.686523,69.219238 38.213867,69.219238 C 19.737305,69.219238 4.7607422,54.243164 4.7607422,35.768555 C 4.7607422,17.289063 19.737305,2.3125 38.213867,2.3125 C 56.686523,2.3125 71.665039,17.289062 71.665039,35.768555 z "
   style="fill:#cecfd1"
   id="path109" />
				<path
   d="M 71.640625,35.749512 C 71.640625,54.182129 56.696289,69.124512 38.265625,69.124512 C 19.831055,69.124512 4.8881836,54.182129 4.8881836,35.749512 C 4.8881836,17.312012 19.831055,2.3696289 38.265625,2.3696289 C 56.696289,2.3696289 71.640625,17.312012 71.640625,35.749512 z "
   style="fill:#cfd0d2"
   id="path111" />
				<path
   d="M 71.616211,35.730469 C 71.616211,54.121094 56.706055,69.029785 38.317383,69.029785 C 19.924805,69.029785 5.0161133,54.121094 5.0161133,35.730469 C 5.0161133,17.334961 19.924805,2.4267579 38.317383,2.4267579 C 56.706055,2.4267578 71.616211,17.334961 71.616211,35.730469 z "
   style="fill:#d0d1d3"
   id="path113" />
				<path
   d="M 71.591797,35.711426 C 71.591797,54.060059 56.71582,68.934082 38.369141,68.934082 C 20.018555,68.934082 5.1435547,54.060059 5.1435547,35.711426 C 5.1435547,17.35791 20.018555,2.4838867 38.369141,2.4838867 C 56.71582,2.4838867 71.591797,17.35791 71.591797,35.711426 z "
   style="fill:#d0d2d3"
   id="path115" />
				<path
   d="M 71.567383,35.692383 C 71.567383,53.999023 56.725586,68.839356 38.420898,68.839356 C 20.112305,68.839356 5.2714843,53.999024 5.2714843,35.692383 C 5.2714843,17.380859 20.112305,2.5410156 38.420898,2.5410156 C 56.725586,2.5410156 71.567383,17.380859 71.567383,35.692383 z "
   style="fill:#d1d3d4"
   id="path117" />
				<path
   d="M 71.516602,35.665527 C 71.516602,53.913574 56.722656,68.705566 38.476563,68.705566 C 20.227051,68.705566 5.4345703,53.913574 5.4345703,35.665527 C 5.4345703,17.413574 20.227051,2.6210937 38.476563,2.6210937 C 56.722656,2.6210938 71.516602,17.413574 71.516602,35.665527 z "
   style="fill:#d2d3d5"
   id="path119" />
				<path
   d="M 71.46582,35.639648 C 71.46582,53.828125 56.719727,68.572754 38.533203,68.572754 C 20.342773,68.572754 5.5976562,53.828125 5.5976562,35.639648 C 5.5976562,17.445801 20.342773,2.7016601 38.533203,2.7016601 C 56.719727,2.7016602 71.46582,17.445801 71.46582,35.639648 z "
   style="fill:#d3d4d6"
   id="path121" />
				<path
   d="M 71.415039,35.613281 C 71.415039,53.742676 56.717774,68.438965 38.589844,68.438965 C 20.458008,68.438965 5.7612305,53.742676 5.7612305,35.613281 C 5.7612305,17.478516 20.458008,2.7822266 38.589844,2.7822266 C 56.717773,2.7822266 71.415039,17.478516 71.415039,35.613281 z "
   style="fill:#d4d5d7"
   id="path123" />
				<path
   d="M 71.364258,35.585938 C 71.364258,53.656738 56.713867,68.306152 38.645508,68.306152 C 20.573242,68.306152 5.9243164,53.656738 5.9243164,35.585938 C 5.9243164,17.511231 20.573242,2.8623047 38.645508,2.8623047 C 56.713867,2.8623047 71.364258,17.511231 71.364258,35.585938 z "
   style="fill:#d5d6d7"
   id="path125" />
				<path
   d="M 71.313477,35.55957 C 71.313477,53.571289 56.710938,68.172363 38.701172,68.172363 C 20.688477,68.172363 6.0869141,53.571289 6.0869141,35.55957 C 6.0869141,17.542969 20.688477,2.9423828 38.701172,2.9423828 C 56.710938,2.9423828 71.313477,17.542969 71.313477,35.55957 z "
   style="fill:#d5d7d8"
   id="path127" />
				<path
   d="M 71.262695,35.533203 C 71.262695,53.48584 56.708984,68.038574 38.757813,68.038574 C 20.803711,68.038574 6.2504883,53.48584 6.2504883,35.533203 C 6.2504883,17.576172 20.803711,3.0229492 38.757813,3.0229492 C 56.708984,3.0229492 71.262695,17.576172 71.262695,35.533203 z "
   style="fill:#d6d7d9"
   id="path129" />
				<path
   d="M 71.212891,35.506836 C 71.212891,53.400391 56.706055,67.905762 38.813477,67.905762 C 20.919434,67.905762 6.4140624,53.400391 6.4140624,35.506836 C 6.4140624,17.608398 20.919434,3.1035156 38.813477,3.1035156 C 56.706055,3.1035156 71.212891,17.608398 71.212891,35.506836 z "
   style="fill:#d7d8da"
   id="path131" />
				<path
   d="M 71.162109,35.480469 C 71.162109,53.314942 56.703125,67.771973 38.870117,67.771973 C 21.03418,67.771973 6.5766602,53.314941 6.5766602,35.480469 C 6.5766602,17.641113 21.03418,3.1840821 38.870117,3.1840821 C 56.703125,3.184082 71.162109,17.641113 71.162109,35.480469 z "
   style="fill:#d8d9db"
   id="path133" />
				<path
   d="M 71.110352,35.453613 C 71.110352,53.229004 56.700195,67.638184 38.925781,67.638184 C 21.148926,67.638184 6.7397461,53.229004 6.7397461,35.453613 C 6.7397461,17.67334 21.148926,3.2636719 38.925781,3.2636719 C 56.700195,3.2636719 71.110352,17.67334 71.110352,35.453613 z "
   style="fill:#d8d9db"
   id="path135" />
				<path
   d="M 71.060547,35.427246 C 71.060547,53.144043 56.698242,67.505371 38.982422,67.505371 C 21.264648,67.505371 6.9033203,53.144043 6.9033203,35.427246 C 6.9033203,17.706055 21.264648,3.3442383 38.982422,3.3442383 C 56.698242,3.3442383 71.060547,17.706055 71.060547,35.427246 z "
   style="fill:#d9dadb"
   id="path137" />
				<path
   d="M 71.009766,35.400879 C 71.009766,53.058106 56.695313,67.371582 39.038086,67.371582 C 21.379883,67.371582 7.0664062,53.058105 7.0664062,35.400879 C 7.0664062,17.73877 21.379883,3.4248047 39.038086,3.4248047 C 56.695313,3.4248047 71.009766,17.738769 71.009766,35.400879 z "
   style="fill:#d9dbdc"
   id="path139" />
				<path
   d="M 70.958984,35.374023 C 70.958984,52.972656 56.692383,67.237793 39.094727,67.237793 C 21.495117,67.237793 7.2294922,52.972656 7.2294922,35.374023 C 7.2294922,17.770996 21.495117,3.5048828 39.094727,3.5048828 C 56.692383,3.5048828 70.958984,17.770996 70.958984,35.374023 z "
   style="fill:#dadcdd"
   id="path141" />
				<path
   d="M 70.908203,35.347656 C 70.908203,52.887207 56.689453,67.10498 39.150391,67.10498 C 21.610352,67.10498 7.3930664,52.887207 7.3930664,35.347656 C 7.3930664,17.803711 21.610352,3.5854493 39.150391,3.5854493 C 56.689453,3.5854492 70.908203,17.803711 70.908203,35.347656 z "
   style="fill:#dbdcde"
   id="path143" />
				<path
   d="M 70.857422,35.321289 C 70.857422,52.801758 56.686524,66.971191 39.207031,66.971191 C 21.725586,66.971191 7.5561524,52.801758 7.5561524,35.321289 C 7.5561524,17.836426 21.725586,3.6655274 39.207031,3.6655274 C 56.686523,3.6655273 70.857422,17.836426 70.857422,35.321289 z "
   style="fill:#dcddde"
   id="path145" />
				<path
   d="M 70.807617,35.294434 C 70.807617,52.716309 56.683594,66.838379 39.262695,66.838379 C 21.84082,66.838379 7.7192383,52.716309 7.7192383,35.294434 C 7.7192383,17.868652 21.84082,3.7460938 39.262695,3.7460938 C 56.683594,3.7460938 70.807617,17.868652 70.807617,35.294434 z "
   style="fill:#dddedf"
   id="path147" />
				<path
   d="M 70.756836,35.268066 C 70.756836,52.630371 56.681641,66.70459 39.319336,66.70459 C 21.956055,66.70459 7.8823242,52.630371 7.8823242,35.268066 C 7.8823242,17.901367 21.956055,3.8266601 39.319336,3.8266601 C 56.681641,3.8266602 70.756836,17.901367 70.756836,35.268066 z "
   style="fill:#dedfe0"
   id="path149" />
				<path
   d="M 70.706055,35.241699 C 70.706055,52.544922 56.678711,66.570801 39.375,66.570801 C 22.071289,66.570801 8.0458984,52.544922 8.0458984,35.241699 C 8.0458984,17.934082 22.071289,3.9067383 39.375,3.9067383 C 56.678711,3.9067383 70.706055,17.934082 70.706055,35.241699 z "
   style="fill:#dee0e1"
   id="path151" />
				<path
   d="M 70.655273,35.214844 C 70.655273,52.459473 56.675781,66.437988 39.431641,66.437988 C 22.186523,66.437988 8.2089843,52.459473 8.2089843,35.214844 C 8.2089843,17.966309 22.186523,3.9868165 39.431641,3.9868165 C 56.675781,3.9868164 70.655273,17.966309 70.655273,35.214844 z "
   style="fill:#dfe0e2"
   id="path153" />
				<path
   d="M 70.604492,35.188477 C 70.604492,52.374023 56.672852,66.304199 39.487305,66.304199 C 22.301758,66.304199 8.3720703,52.374023 8.3720703,35.188477 C 8.3720703,17.999024 22.301758,4.0673828 39.487305,4.0673828 C 56.672852,4.0673828 70.604492,17.999023 70.604492,35.188477 z "
   style="fill:#e0e1e2"
   id="path155" />
				<path
   d="M 70.538086,35.148926 C 70.538086,52.238281 56.68457,66.091309 39.594727,66.091309 C 22.504883,66.091309 8.652832,52.238281 8.652832,35.148926 C 8.652832,18.054688 22.504883,4.2011719 39.594727,4.2011719 C 56.68457,4.2011719 70.538086,18.054688 70.538086,35.148926 z "
   style="fill:#e1e2e3"
   id="path157" />
				<path
   d="M 70.472656,35.108887 C 70.472656,52.103516 56.696289,65.878418 39.702149,65.878418 C 22.70752,65.878418 8.9326172,52.103516 8.9326172,35.108887 C 8.9326172,18.111328 22.70752,4.3344726 39.702149,4.3344726 C 56.696289,4.3344727 70.472656,18.111328 70.472656,35.108887 z "
   style="fill:#e2e3e4"
   id="path159" />
				<path
   d="M 70.40625,35.069336 C 70.40625,51.967773 56.707031,65.665527 39.808594,65.665527 C 22.910645,65.665527 9.2133789,51.967773 9.2133789,35.069336 C 9.2133789,18.166992 22.910645,4.4682617 39.808594,4.4682617 C 56.707031,4.4682617 70.40625,18.166992 70.40625,35.069336 z "
   style="fill:#e3e4e5"
   id="path161" />
				<path
   d="M 70.34082,35.029785 C 70.34082,51.83252 56.71875,65.452637 39.916016,65.452637 C 23.113281,65.452637 9.4931641,51.83252 9.4931641,35.029785 C 9.4931641,18.223145 23.113281,4.6015625 39.916016,4.6015625 C 56.71875,4.6015625 70.34082,18.223144 70.34082,35.029785 z "
   style="fill:#e3e4e5"
   id="path163" />
				<path
   d="M 70.274414,34.989746 C 70.274414,51.697266 56.731445,65.239746 40.023438,65.239746 C 23.316895,65.239746 9.7739258,51.697266 9.7739258,34.989746 C 9.7739258,18.279297 23.316895,4.7353516 40.023438,4.7353516 C 56.731445,4.7353516 70.274414,18.279297 70.274414,34.989746 z "
   style="fill:#e4e5e6"
   id="path165" />
				<path
   d="M 70.208008,34.950195 C 70.208008,51.562012 56.742187,65.027832 40.129883,65.027832 C 23.520019,65.027832 10.054687,51.562012 10.054687,34.950195 C 10.054687,18.335449 23.520019,4.8686523 40.129883,4.8686523 C 56.742188,4.8686523 70.208008,18.335449 70.208008,34.950195 z "
   style="fill:#e5e6e7"
   id="path167" />
				<path
   d="M 70.142578,34.910644 C 70.142578,51.426269 56.753906,64.814941 40.237305,64.814941 C 23.722656,64.814941 10.334473,51.426269 10.334473,34.910644 C 10.334473,18.391113 23.722656,5.0024414 40.237305,5.0024414 C 56.753906,5.0024414 70.142578,18.391113 70.142578,34.910644 z "
   style="fill:#e6e7e8"
   id="path169" />
				<path
   d="M 70.076172,34.871094 C 70.076172,51.291016 56.765625,64.602051 40.344727,64.602051 C 23.925781,64.602051 10.615234,51.291016 10.615234,34.871094 C 10.615234,18.447266 23.925781,5.1362305 40.344727,5.1362305 C 56.765625,5.1362305 70.076172,18.447266 70.076172,34.871094 z "
   style="fill:#e7e8e9"
   id="path171" />
				<path
   d="M 70.009766,34.831543 C 70.009766,51.155762 56.777344,64.38916 40.452148,64.38916 C 24.128906,64.38916 10.895508,51.155762 10.895508,34.831543 C 10.895508,18.503418 24.128906,5.2700196 40.452148,5.2700196 C 56.777344,5.2700195 70.009766,18.503418 70.009766,34.831543 z "
   style="fill:#e7e8e9"
   id="path173" />
				<path
   d="M 69.944336,34.791504 C 69.944336,51.02002 56.789063,64.17627 40.55957,64.17627 C 24.331543,64.17627 11.175781,51.02002 11.175781,34.791504 C 11.175781,18.559082 24.331543,5.4033203 40.55957,5.4033203 C 56.789063,5.4033203 69.944336,18.559082 69.944336,34.791504 z "
   style="fill:#e8e8e9"
   id="path175" />
				<path
   d="M 69.87793,34.751953 C 69.87793,50.884766 56.800781,63.964355 40.666016,63.964355 C 24.534668,63.964355 11.456543,50.884766 11.456543,34.751953 C 11.456543,18.615234 24.534668,5.5371093 40.666016,5.5371093 C 56.800781,5.5371094 69.87793,18.615234 69.87793,34.751953 z "
   style="fill:#e9e9ea"
   id="path177" />
				<path
   d="M 69.8125,34.712402 C 69.8125,50.749512 56.8125,63.751465 40.773438,63.751465 C 24.737793,63.751465 11.736816,50.749512 11.736816,34.712402 C 11.736816,18.671387 24.737793,5.6704101 40.773438,5.6704101 C 56.8125,5.6704102 69.8125,18.671387 69.8125,34.712402 z "
   style="fill:#e9eaeb"
   id="path179" />
				<path
   d="M 69.746094,34.672852 C 69.746094,50.614258 56.823242,63.538574 40.880859,63.538574 C 24.940918,63.538574 12.01709,50.614258 12.01709,34.672852 C 12.01709,18.727539 24.940918,5.8041993 40.880859,5.8041993 C 56.823242,5.8041992 69.746094,18.727539 69.746094,34.672852 z "
   style="fill:#eaebec"
   id="path181" />
				<path
   d="M 69.679687,34.633301 C 69.679687,50.479004 56.834961,63.325684 40.988281,63.325684 C 25.143555,63.325684 12.297851,50.479004 12.297851,34.633301 C 12.297851,18.783691 25.143555,5.9379883 40.988281,5.9379883 C 56.834961,5.9379883 69.679687,18.783691 69.679687,34.633301 z "
   style="fill:#ebeced"
   id="path183" />
				<path
   d="M 69.614258,34.593262 C 69.614258,50.343262 56.84668,63.112793 41.094727,63.112793 C 25.34668,63.112793 12.578125,50.343262 12.578125,34.593262 C 12.578125,18.839355 25.34668,6.071289 41.094727,6.071289 C 56.84668,6.0712891 69.614258,18.839356 69.614258,34.593262 z "
   style="fill:#eceded"
   id="path185" />
				<path
   d="M 69.547852,34.553711 C 69.547852,50.208008 56.858399,62.899902 41.202149,62.899902 C 25.549805,62.899902 12.858399,50.208008 12.858399,34.553711 C 12.858399,18.895508 25.549805,6.2050781 41.202149,6.2050781 C 56.858398,6.2050781 69.547852,18.895508 69.547852,34.553711 z "
   style="fill:#ededee"
   id="path187" />
				<path
   d="M 69.359375,34.487793 C 69.359375,49.957031 56.819336,62.498535 41.348633,62.498535 C 25.881348,62.498535 13.339844,49.957031 13.339844,34.487793 C 13.339844,19.014648 25.881348,6.4736328 41.348633,6.4736328 C 56.819336,6.4736328 69.359375,19.014648 69.359375,34.487793 z "
   style="fill:#eeeeef"
   id="path189" />
				<path
   d="M 69.169922,34.422363 C 69.169922,49.706543 56.78125,62.098145 41.495117,62.098145 C 26.212402,62.098145 13.821289,49.706543 13.821289,34.422363 C 13.821289,19.133789 26.212402,6.7431641 41.495117,6.7431641 C 56.78125,6.7431641 69.169922,19.133789 69.169922,34.422363 z "
   style="fill:#eeeff0"
   id="path191" />
				<path
   d="M 68.981445,34.355957 C 68.981445,49.455078 56.742188,61.696777 41.641602,61.696777 C 26.543945,61.696777 14.302246,49.455078 14.302246,34.355957 C 14.302246,19.25293 26.543945,7.012207 41.641602,7.012207 C 56.742188,7.012207 68.981445,19.25293 68.981445,34.355957 z "
   style="fill:#eff0f0"
   id="path193" />
				<path
   d="M 68.792969,34.290527 C 68.792969,49.204102 56.703125,61.296387 41.788086,61.296387 C 26.875488,61.296387 14.783691,49.204102 14.783691,34.290527 C 14.783691,19.372559 26.875488,7.28125 41.788086,7.28125 C 56.703125,7.28125 68.792969,19.372559 68.792969,34.290527 z "
   style="fill:#f0f1f1"
   id="path195" />
				<path
   d="M 68.604492,34.225098 C 68.604492,48.953613 56.665039,60.89502 41.93457,60.89502 C 27.207031,60.89502 15.265625,48.953613 15.265625,34.225098 C 15.265625,19.491699 27.207031,7.5507813 41.93457,7.5507813 C 56.665039,7.5507813 68.604492,19.491699 68.604492,34.225098 z "
   style="fill:#f1f1f2"
   id="path197" />
				<path
   d="M 68.415039,34.158691 C 68.415039,48.702637 56.625977,60.494629 42.081055,60.494629 C 27.538574,60.494629 15.746582,48.702637 15.746582,34.158691 C 15.746582,19.61084 27.538574,7.8193359 42.081055,7.8193359 C 56.625977,7.8193359 68.415039,19.61084 68.415039,34.158691 z "
   style="fill:#f2f2f3"
   id="path199" />
				<path
   d="M 68.226563,34.093262 C 68.226563,48.45166 56.587891,60.093262 42.227539,60.093262 C 27.869629,60.093262 16.228027,48.45166 16.228027,34.093262 C 16.228027,19.72998 27.869629,8.0888672 42.227539,8.0888672 C 56.587891,8.0888672 68.226563,19.729981 68.226563,34.093262 z "
   style="fill:#f3f3f3"
   id="path201" />
				<path
   d="M 68.038086,34.027344 C 68.038086,48.200684 56.548828,59.692871 42.374023,59.692871 C 28.201172,59.692871 16.709473,48.200684 16.709473,34.027344 C 16.709473,19.849121 28.201172,8.3579102 42.374023,8.3579102 C 56.548828,8.3579102 68.038086,19.849121 68.038086,34.027344 z "
   style="fill:#f3f4f4"
   id="path203" />
				<path
   d="M 67.849609,33.961426 C 67.849609,47.950195 56.509766,59.291504 42.520508,59.291504 C 28.532715,59.291504 17.19043,47.950195 17.19043,33.961426 C 17.19043,19.96875 28.532715,8.6269531 42.520508,8.6269531 C 56.509766,8.6269531 67.849609,19.96875 67.849609,33.961426 z "
   style="fill:#f3f4f4"
   id="path205" />
				<path
   d="M 67.660156,33.895996 C 67.660156,47.699219 56.47168,58.891113 42.666992,58.891113 C 28.863769,58.891113 17.671875,47.699219 17.671875,33.895996 C 17.671875,20.087891 28.86377,8.8959961 42.666992,8.8959961 C 56.47168,8.8959961 67.660156,20.087891 67.660156,33.895996 z "
   style="fill:#f4f5f5"
   id="path207" />
				<path
   d="M 67.47168,33.830078 C 67.47168,47.448242 56.432617,58.489746 42.813477,58.489746 C 29.195313,58.489746 18.15332,47.448242 18.15332,33.830078 C 18.15332,20.207031 29.195313,9.165039 42.813477,9.165039 C 56.432617,9.1650391 67.47168,20.207031 67.47168,33.830078 z "
   style="fill:#f5f6f6"
   id="path209" />
				<path
   d="M 67.237305,33.736328 C 67.237305,47.092285 56.410156,57.921387 43.052734,57.921387 C 29.696289,57.921387 18.866699,47.092285 18.866699,33.736328 C 18.866699,20.375 29.696289,9.5454101 43.052734,9.5454101 C 56.410156,9.5454102 67.237305,20.375 67.237305,33.736328 z "
   style="fill:#f6f6f7"
   id="path211" />
				<path
   d="M 67.001953,33.641602 C 67.001953,46.736816 56.386719,57.353027 43.291016,57.353027 C 30.196777,57.353027 19.580078,46.736816 19.580078,33.641602 C 19.580078,20.541992 30.196777,9.925293 43.291016,9.925293 C 56.386719,9.925293 67.001953,20.541992 67.001953,33.641602 z "
   style="fill:#f7f7f8"
   id="path213" />
				<path
   d="M 66.767578,33.547363 C 66.767578,46.380859 56.364258,56.784668 43.530273,56.784668 C 30.697266,56.784668 20.293457,46.380859 20.293457,33.547363 C 20.293457,20.709473 30.697266,10.305176 43.530273,10.305176 C 56.364258,10.305176 66.767578,20.709473 66.767578,33.547363 z "
   style="fill:#f8f8f9"
   id="path215" />
				<path
   d="M 66.533203,33.453125 C 66.533203,46.024902 56.341797,56.21582 43.769531,56.21582 C 31.198242,56.21582 21.006836,46.024902 21.006836,33.453125 C 21.006836,20.876953 31.198242,10.685547 43.769531,10.685547 C 56.341797,10.685547 66.533203,20.876953 66.533203,33.453125 z "
   style="fill:#f9f9fa"
   id="path217" />
				<path
   d="M 66.297852,33.358887 C 66.297852,45.669434 56.318359,55.647461 44.007813,55.647461 C 31.698731,55.647461 21.720215,45.669434 21.720215,33.358887 C 21.720215,21.044434 31.69873,11.06543 44.007813,11.06543 C 56.318359,11.06543 66.297852,21.044434 66.297852,33.358887 z "
   style="fill:#fafbfb"
   id="path219" />
				<path
   d="M 66.063477,33.264648 C 66.063477,45.313476 56.295899,55.079102 44.24707,55.079102 C 32.199219,55.079102 22.433594,45.313477 22.433594,33.264648 C 22.433594,21.211914 32.199219,11.445312 44.24707,11.445312 C 56.295898,11.445313 66.063477,21.211914 66.063477,33.264648 z "
   style="fill:#fafbfb"
   id="path221" />
				<path
   d="M 65.743164,33.192871 C 65.743164,44.996094 56.174805,54.563477 44.371094,54.563477 C 32.569336,54.563477 23.001953,44.996094 23.001953,33.192871 C 23.001953,21.385742 32.569336,11.818359 44.371094,11.818359 C 56.174805,11.818359 65.743164,21.385742 65.743164,33.192871 z "
   style="fill:#fcfcfc"
   id="path223" />
				<path
   d="M 65.422852,33.121582 C 65.422852,44.678711 56.053711,54.047852 44.496094,54.047852 C 32.939453,54.047852 23.570801,44.678711 23.570801,33.121582 C 23.570801,21.560059 32.939453,12.191406 44.496094,12.191406 C 56.053711,12.191406 65.422852,21.560059 65.422852,33.121582 z "
   style="fill:#fdfdfd"
   id="path225" />
				<path
   d="M 65.102539,33.050293 C 65.102539,44.361328 55.932617,53.532227 44.621094,53.532227 C 33.30957,53.532227 24.139648,44.361328 24.139648,33.050293 C 24.139648,21.733887 33.30957,12.564453 44.621094,12.564453 C 55.932617,12.564453 65.102539,21.733887 65.102539,33.050293 z "
   style="fill:#fdfdfd"
   id="path227" />
				<path
   d="M 64.782227,32.978516 C 64.782227,44.043945 55.811524,53.016602 44.745117,53.016602 C 33.679688,53.016602 24.708008,44.043945 24.708008,32.978516 C 24.708008,21.908203 33.679688,12.9375 44.745117,12.9375 C 55.811523,12.9375 64.782227,21.908203 64.782227,32.978516 z "
   style="fill:#ffffff"
   id="path229" />
			</g><g
     id="g5">
		<path
   d="M 58.010742,109.69678 L 53.696289,105.23779 C 53.566406,105.13428 53.518555,104.92139 53.633789,104.75537 C 53.641602,104.74561 56.926758,99.214355 56.926758,99.214355 C 57,99.058105 57.007813,98.952637 57.007813,98.897949 C 57.007813,98.54834 56.722656,98.26123 56.370117,98.26123 L 53.961914,98.26123 C 53.716797,98.26123 53.50293,98.390137 53.387695,98.591308 L 51.301758,102.19287 C 51.203125,102.3374 50.99707,102.37061 50.84668,102.26514 C 50.84668,102.26318 47.478516,98.802246 47.478516,98.802246 C 47.424805,98.739746 47.399414,98.665527 47.399414,98.591308 C 47.399414,98.507324 47.43457,98.419433 47.505859,98.35498 L 47.549805,98.315918 C 49.453125,97.208496 51.62207,95.57959 51.62207,92.712402 C 51.62207,89.415527 49.255859,87.202637 45.736328,87.202637 C 42.289062,87.202637 39.668945,89.51123 39.668945,92.956543 C 39.668945,94.472168 40.301758,95.983887 41.608398,97.575683 L 41.637695,97.61084 C 41.689453,97.67334 41.714844,97.76123 41.705078,97.843262 C 41.691406,97.933105 41.649414,98.01123 41.580078,98.067871 C 38.712891,99.69873 37.263672,101.85693 37.263672,104.49951 C 37.263672,108.97998 41.014648,111.32764 44.719727,111.32764 C 47.264648,111.32764 49.25,110.35107 51.161133,108.15771 C 51.168945,108.14795 51.199219,108.10889 51.199219,108.10889 C 51.311523,107.99561 51.523438,107.99561 51.652344,108.12646 L 53.969727,110.52686 C 53.97168,110.53076 54.03125,110.58936 54.03125,110.58936 C 54.15625,110.71045 54.316406,110.7749 54.486328,110.7749 L 57.547851,110.7749 C 57.904297,110.7749 58.1875,110.48975 58.1875,110.13818 C 58.1875,109.97217 58.12207,109.81396 58.010742,109.69678 L 58.010742,109.69678 z M 45.793945,90.526855 C 47.243164,90.526855 48.020508,91.526855 48.020508,92.745605 C 48.020508,94.171387 46.748047,94.997559 45.213867,95.85498 L 45.136719,95.888184 C 45.014649,95.956543 44.857422,95.927246 44.766602,95.827637 C 44.760742,95.821777 44.727539,95.79248 44.727539,95.79248 C 44.0625,95.060058 43.276367,93.903808 43.276367,93.060058 C 43.276367,91.640137 44.295898,90.526855 45.793945,90.526855 z M 48.887695,105.74561 L 48.874023,105.76318 C 47.763672,107.0874 46.538086,107.97217 44.760742,107.97217 C 42.647461,107.97217 40.99707,106.45264 40.99707,104.51709 C 40.99707,102.80225 41.730469,101.78662 43.900391,100.47607 C 44.054687,100.38428 44.21875,100.40576 44.329101,100.50928 L 48.853516,105.25146 C 48.936523,105.32959 48.974609,105.40771 48.974609,105.49561 C 48.974609,105.49756 48.974609,105.50146 48.974609,105.50537 C 48.974609,105.58936 48.951172,105.66357 48.887695,105.74561 z "
   id="path7" />
		<path
   d="M 34.408203,107.9292 C 34.407227,107.9292 34.272461,107.93311 34.272461,107.93311 C 30.806641,107.93311 29.050781,106.09326 29.050781,102.47803 L 29.050781,91.815918 C 29.050781,91.632324 29.204101,91.481934 29.391601,91.481934 L 34.819336,91.481934 C 35.173828,91.481934 35.466797,91.188965 35.466797,90.835449 L 35.466797,88.466309 C 35.466797,88.108887 35.173828,87.819824 34.819336,87.819824 L 29.407227,87.819824 C 29.212891,87.819824 29.050781,87.665527 29.050781,87.468262 L 29.050781,82.569824 C 29.066406,82.220215 28.791016,81.919434 28.433594,81.903809 L 28.359375,81.903809 C 28.357422,81.903809 25.583008,82.122559 25.583008,82.122559 C 25.238281,82.122559 24.947266,82.405762 24.947266,82.765137 L 24.947266,87.48584 C 24.947266,87.671387 24.795898,87.819824 24.609375,87.819824 L 21.199219,87.819824 C 20.84375,87.819824 20.553711,88.10498 20.553711,88.462402 L 20.547852,90.845215 C 20.553711,91.020996 20.624023,91.185059 20.750977,91.296387 C 20.87793,91.41748 21.041992,91.481934 21.212891,91.481934 L 24.611328,91.481934 C 24.797852,91.481934 24.950195,91.628418 24.950195,91.815918 L 24.947266,103.19092 C 24.947266,109.29639 29.545898,111.47803 33.576172,111.47803 C 33.576172,111.47803 34.053711,111.48584 34.420899,111.44873 C 34.783203,111.41357 35.057617,111.15967 35.057617,110.80225 L 35.057617,108.56787 C 35.057617,108.21631 34.766602,107.9292 34.408203,107.9292 z "
   id="path9" />
		<path
   d="M 18.865234,109.85498 C 18.645508,109.23584 18.584961,108.55029 18.566406,108.25342 C 18.554687,108.03271 18.545898,107.13623 18.545898,107.13623 L 18.545898,95.870605 C 18.545898,89.919434 14.337891,87.804199 10.399414,87.804199 C 7.2822266,87.804199 4.4345703,88.618652 2.6054688,89.839355 C 2.4511719,89.940918 2.3544922,90.093262 2.3183594,90.249512 C 2.2841797,90.415527 2.3183594,90.57959 2.4111328,90.720215 C 2.4228516,90.743652 3.8623047,92.683105 3.8623047,92.683105 C 4.0654297,92.966309 4.4638672,93.028809 4.7470703,92.825684 C 4.7412109,92.82959 4.9433594,92.694824 4.9433594,92.694824 C 6.3730469,91.806152 8.0654297,91.29248 9.7832032,91.29248 C 14.645508,91.29248 14.50293,95.099121 14.50293,95.595215 C 14.50293,95.849121 14.351563,95.909668 14.168945,95.903809 C 14.166992,95.903809 13.418945,95.888184 13.418945,95.888184 C 9.6445313,95.749512 0.0800782,97.034668 0.0800782,104.61865 C 0.0800782,109.07568 3.7929688,111.34521 7.256836,111.34521 C 10.614258,111.34521 13.314453,110.01318 14.662109,108.38428 L 14.675781,108.3667 C 14.693359,108.34521 14.71582,108.3335 14.74707,108.3335 C 14.791016,108.3335 14.830078,108.37256 14.830078,108.41748 C 14.828125,108.62842 14.830078,109.10107 14.875977,109.50928 C 14.90625,109.87842 14.955078,110.15186 15.016602,110.35303 C 15.069336,110.53076 15.185547,110.71045 15.356445,110.79443 C 15.441406,110.83545 15.533203,110.86279 15.625977,110.86475 C 15.629883,110.86475 18.320313,110.8667 18.320313,110.8667 C 18.670899,110.8667 18.956055,110.5874 18.956055,110.24756 C 18.956055,110.13818 18.865234,109.85498 18.865234,109.85498 z M 14.677734,101.03076 C 14.12793,104.91748 12.213867,107.16553 8.6767578,107.74561 C 6.1875,108.15381 3.9335937,107.13037 3.8125,104.46436 C 3.6787109,101.53662 7.078125,99.077637 13.360352,99.347168 C 13.360352,99.347168 13.823242,99.376465 14.131836,99.411621 C 14.407227,99.442871 14.577149,99.526855 14.683594,99.692871 C 14.783203,99.847168 14.800781,100.15576 14.677734,101.03076 z "
   id="path11" />
		<path
   d="M 70.960938,107.9292 C 70.957031,107.9292 70.822266,107.93311 70.822266,107.93311 C 67.358398,107.93311 65.600586,106.09326 65.600586,102.47803 L 65.600586,91.815918 C 65.600586,91.632324 65.755859,91.481934 65.939453,91.481934 L 71.366211,91.481934 C 71.726563,91.481934 72.019531,91.188965 72.019531,90.835449 L 72.019531,88.466309 C 72.019531,88.108887 71.726562,87.819824 71.366211,87.819824 L 65.958984,87.819824 C 65.761719,87.819824 65.600586,87.665527 65.600586,87.468262 L 65.600586,82.569824 C 65.619141,82.220215 65.339844,81.919434 64.981445,81.903809 L 64.908203,81.903809 C 64.90625,81.903809 62.131836,82.122559 62.131836,82.122559 C 61.789063,82.122559 61.498047,82.405762 61.498047,82.765137 L 61.498047,87.48584 C 61.498047,87.671387 61.345703,87.819824 61.15625,87.819824 L 57.75,87.819824 C 57.391602,87.819824 57.104492,88.10498 57.104492,88.462402 L 57.098633,90.845215 C 57.104492,91.020996 57.175781,91.185059 57.300781,91.296387 C 57.425781,91.41748 57.589844,91.481934 57.765625,91.481934 L 61.162109,91.481934 C 61.345703,91.481934 61.5,91.628418 61.5,91.815918 L 61.5,103.19092 C 61.5,109.29639 66.09375,111.47803 70.126953,111.47803 C 70.126953,111.47803 70.604492,111.48584 70.970703,111.44873 C 71.333008,111.41357 71.603516,111.15967 71.603516,110.80225 L 71.607422,108.56787 C 71.607422,108.21631 71.316406,107.9292 70.960938,107.9292 z "
   id="path13" />
	</g><path
     d="M 2.9472656,24.455078 C 2.9472656,22.914063 3.1669922,21.831055 3.5849609,20.867188 C 4.28125,19.432617 5.0693359,18.049805 5.9414062,16.725586 C 5.7187499,17.101563 5.5839843,17.532227 5.5839843,18.037109 C 5.5839843,21.387695 13.785156,25.738281 24.977539,27.163086 C 28.769531,27.647461 38.80957,29.016602 46.583008,28.375977 C 62.272461,27.081055 65.762695,21.601562 65.762695,18.037109 C 65.762695,17.0625 65.233398,15.640625 64.706055,14.813477 C 65.416992,15.756836 66.088867,16.736328 66.709961,17.748047 C 67.90918,19.838867 67.758789,20.668945 67.758789,21.03125 C 67.758789,28.306641 54.217774,33.055664 45.157227,35.53125 C 21.913086,41.87793 2.9472656,33.228516 2.9472656,24.455078 z M 10.363281,14.257813 C 10.363281,17.538086 15.138672,22.78418 28.97168,22.78418 C 37.172852,22.78418 43.793945,21.196289 48.791992,19.533203 C 56.803711,16.871094 60.770508,13.616211 60.62793,11.192383 C 60.604492,10.81543 60.458008,10.204101 60.012695,9.7197265 C 58.233398,8.1289062 56.295898,6.7080077 54.227539,5.4902343 C 55.594727,6.2880859 56.368164,7.2138671 56.368164,8.2451171 C 56.368164,11.859375 47.541992,15.170898 36.011719,15.466797 C 24.482422,15.763672 14.929687,12.926758 14.671875,9.3203124 C 14.585937,8.1289061 15.447266,6.9531249 17.078125,5.9121093 C 15.832031,6.6826171 14.638672,7.5273437 13.501953,8.4394531 C 10.293945,11.101563 10.363281,13.912109 10.363281,14.257813 z M 40.37793,56.616211 C 33.357422,56.866699 20.99707,54.448242 13.213867,51.268555 C 6.9482422,48.708008 0.7490234,43.727539 0.0839844,38.975586 C 0.1591797,40.120117 0.288086,41.249023 0.4697266,42.358398 C 4.3115235,63.308105 30.699219,62.11084 35.246094,61.606934 C 68.438477,57.925293 71.295898,43.75293 71.731445,40.954102 C 71.801758,40.370117 71.860352,39.78418 71.90332,39.192383 C 71.317383,42.922852 65.706055,55.709961 40.37793,56.616211 z M 15.138672,61.394043 C 9.1816406,58.931152 5.0605469,54.836914 3.4042969,51.84668 C 4.928711,55.081055 6.9179688,58.058105 9.2910157,60.681152 C 17.051758,67.972168 28.983398,68.85498 34.460938,68.85498 C 57.661133,68.85498 65.946289,56.661621 67.819336,53.399414 C 68.166992,52.74707 68.493164,52.077148 68.801758,51.399414 C 65.129883,58.962402 46.086914,74.181152 15.138672,61.394043 z M 71.323242,30.923828 C 71.323242,30.342773 71.25293,29.189453 70.981445,28.003906 C 70.788086,27.202148 70.563476,26.414062 70.317383,25.634766 C 70.75293,27.099609 70.682617,28.124023 70.682617,28.518555 C 70.682617,30.304688 68.463867,41.225586 46.65332,43.209961 C 44.766602,43.379883 30.910156,43.594727 18.862305,40.547852 C 10.848633,38.520508 2.8017578,34.601563 1.2832031,29.161133 C 1.0478515,28.311523 1.1503906,27.529297 1.3378906,26.792969 L 1.3378906,26.792969 C 0.7265625,28.970703 0.3154297,31.235352 0.1240234,33.560547 C 0.2636718,39.290039 5.2373047,45.969727 14.354492,48.844727 C 24.763672,52.12207 31.15625,52.227539 46.295898,48.856445 C 71.561523,43.223633 71.323242,32.157227 71.323242,30.923828 z "
     style="fill:#32a5dd"
     id="path21" /><path
     d="M 45.157227,35.53125 C 45.770508,35.363281 46.40332,35.18457 47.053711,34.996094 C 44.262695,34.397461 41.297852,34.073242 38.22168,34.073242 C 32.386719,34.073242 26.944336,35.235352 22.353516,37.242187 C 28.936523,38.157227 36.766602,37.821289 45.157227,35.53125 z M 42.178711,21.360352 C 44.629883,20.823242 46.834961,20.183594 48.791992,19.533203 C 49.862305,19.177734 50.856445,18.811524 51.782227,18.438477 C 49.03418,17.93457 46.588867,17.617188 44.94043,17.466797 C 38.666992,16.895508 29.328125,18.677734 26.905273,19.178711 C 26.15918,19.332031 22.749023,20.039063 18.594727,21.487305 C 19.572266,21.777344 20.649414,22.02832 21.832031,22.230469 C 25.594727,21.173828 29.488281,20.576172 33.18457,20.576172 C 35.631836,20.576172 38.760742,20.835938 42.178711,21.360352 z M 42.897461,43.291992 C 40.608398,43.280273 37.495117,43.186523 33.986328,42.907227 C 27.763672,43.635742 22.477539,46.411133 19.46875,50.260742 C 20.464844,50.491211 21.442383,50.68457 22.414062,50.842774 C 25.586914,47.358399 30.950195,45.069336 37.03418,45.069336 C 41.473633,45.069336 45.530273,46.290039 48.629883,48.301758 C 49.838867,47.99707 50.983398,47.680664 52.06543,47.352539 C 49.592773,45.456055 46.442383,44.03418 42.897461,43.291992 z M 63.31543,27.932617 C 65.12793,26.592773 66.520508,25.108398 67.233398,23.475586 C 66.360352,22.935547 65.374023,22.43457 64.30957,21.972656 C 63.250977,23.327148 61.520508,24.670898 58.81543,25.795898 C 60.405273,26.445312 61.918945,27.157227 63.31543,27.932617 z M 55.344727,32.167969 C 57.250977,31.393555 59.09668,30.532227 60.754883,29.584961 C 59.032227,28.666016 57.02832,27.831055 54.698242,27.12207 C 52.448242,27.678711 49.766602,28.113281 46.583008,28.375977 C 45.635742,28.454102 44.657227,28.501953 43.657227,28.526367 C 45.883789,28.952149 48.012695,29.522461 50.032227,30.19043 C 51.983398,30.834961 53.745117,31.496094 55.344727,32.167969 z M 59.594727,40.334961 C 57.991211,40.985352 56.157227,41.569336 54.06543,42.053711 C 55.584961,42.97168 56.952149,44.010742 58.135742,45.149414 C 59.84082,44.411133 61.325195,43.645508 62.618164,42.870117 C 61.706055,41.967773 60.696289,41.12207 59.594727,40.334961 z M 12.551758,23.988281 C 9.7373047,25.367188 6.9804687,27.080078 4.7705078,29.174805 C 5.1064453,29.604492 5.4873047,30.027344 5.9121094,30.439453 C 8.3310547,28.300781 11.37793,26.390625 14.75293,24.832031 C 13.978516,24.5625 13.243164,24.280273 12.551758,23.988281 z M 21.517578,41.163086 C 20.625977,40.973633 19.738281,40.768555 18.862305,40.547852 C 18.303711,40.405273 17.745117,40.254883 17.188477,40.09668 C 14.268555,42.114258 11.955078,44.553711 10.451172,47.268555 C 11.374024,47.731445 12.355469,48.151367 13.394531,48.520508 C 14.266602,46.973633 15.421875,45.538086 16.850586,44.280273 C 18.196289,43.094727 19.769531,42.049805 21.517578,41.163086 z M 11.436523,55.922852 C 11.436523,54.204102 11.734375,52.504883 12.314453,50.883789 C 11.34375,50.450195 10.381836,49.963867 9.4492187,49.430664 C 8.8281249,51.081055 8.4970703,52.811524 8.4970703,54.59668 C 8.4970703,54.948242 8.5126953,55.297852 8.5400391,55.643555 C 9.4960938,56.362305 10.503906,56.997559 11.542969,57.563965 C 11.473633,57.022949 11.436523,56.475586 11.436523,55.922852 z M 31.003906,27.884766 C 28.460938,27.619141 26.325195,27.335938 24.977539,27.163086 C 24.102539,27.051758 23.24707,26.922852 22.411133,26.77832 C 17.567383,28.313477 13.318359,30.624023 9.9970703,33.390625 C 10.672852,33.763672 11.390625,34.119141 12.148438,34.454102 C 16.979492,30.94043 23.580078,28.541016 31.003906,27.884766 z M 20.898437,63.501465 C 19.90625,63.185058 18.899414,62.841308 17.878906,62.464355 C 18.695312,64.210449 19.945312,65.806152 21.53418,67.190918 C 22.857422,67.556152 24.168945,67.845215 25.435547,68.071777 C 23.507813,66.819824 21.949219,65.263184 20.898437,63.501465 z M 70.47168,26.139648 C 70.43457,26.016602 70.395508,25.895508 70.358398,25.773438 C 70.385742,25.87207 70.411133,25.966797 70.432617,26.060547 C 70.446289,26.086914 70.459961,26.113281 70.47168,26.139648 z M 4.8945313,43.350586 C 5.7871094,41.049805 7.2480469,38.905273 9.1689454,36.986328 C 8.5263673,36.652344 7.9072266,36.303711 7.3173829,35.94043 C 5.6289063,37.790039 4.3291016,39.776367 3.4960938,41.825195 C 3.921875,42.34668 4.3886719,42.856445 4.8945313,43.350586 z M 64.727539,37.55957 C 65.581055,38.268555 66.303711,38.973633 66.915039,39.668945 C 67.801758,38.834961 68.510742,38.016602 69.075195,37.235352 C 68.65332,36.511719 68.155273,35.777344 67.563477,35.044922 C 66.807617,35.882813 65.875977,36.734375 64.727539,37.55957 z M 8.8808594,57.806152 C 9.1914063,59.112793 9.6845703,60.380371 10.326172,61.595215 C 11.606445,62.659668 12.977539,63.571777 14.401367,64.353027 C 13.365234,62.962402 12.571289,61.468262 12.067383,59.899902 C 10.907227,59.245606 9.84375,58.540527 8.8808594,57.806152 z M 50.799805,66.39209 C 52.491211,65.821777 54.032227,65.17334 55.43457,64.47998 C 55.973633,63.722168 56.424805,62.927246 56.77832,62.103027 C 55.606445,62.687012 54.356445,63.23584 53.02832,63.728027 C 52.428711,64.687012 51.678711,65.57959 50.799805,66.39209 z M 54.018555,54.62207 C 54.344727,55.485352 54.555664,56.387695 54.637695,57.313965 C 55.688477,56.919434 56.672852,56.508789 57.600586,56.088867 C 57.481445,55.254883 57.266602,54.444336 56.967773,53.65918 C 56.040039,54.00293 55.05957,54.325195 54.018555,54.62207 z M 60.426758,12.298828 C 58.774414,11.725586 56.807617,11.299805 54.612305,11.013672 C 52.043945,12.978516 46.862305,14.571289 40.40918,15.199219 C 44.467774,15.604492 49.411133,16.304687 54.125977,17.405273 C 57.692383,15.683594 59.797852,13.879883 60.426758,12.298828 z M 14.983398,10.313477 C 13.368164,10.993164 11.913086,11.69043 10.672852,12.383789 C 10.455078,13.048828 10.389648,13.589844 10.371094,13.923828 C 11.962891,13.104492 13.859375,12.264649 15.976563,11.451172 C 15.541016,11.086914 15.205078,10.707031 14.983398,10.313477 z M 2.5283203,31.710938 C 1.5957031,33 0.8769531,34.405273 0.4501953,35.935547 C 0.5634766,36.402344 0.7050781,36.87207 0.8789062,37.341797 C 1.4179688,35.8125 2.3144531,34.322266 3.5,32.901367 C 3.140625,32.515625 2.8154297,32.119141 2.5283203,31.710938 z M 3.8847656,48.665039 C 3.8847656,47.635742 3.9960937,46.624024 4.2089844,45.633789 C 3.6875,45.149414 3.2021485,44.649414 2.7597656,44.143555 C 2.4287109,45.598633 2.3388672,47.071289 2.515625,48.53418 C 2.9882813,49.463867 3.5175781,50.329102 4.0976563,51.137695 C 3.9580078,50.321289 3.8847656,49.495117 3.8847656,48.665039 z M 12.954102,18.695312 C 16.75,16.969727 21.40918,15.594727 26.905274,15.024414 C 25.023438,14.780273 23.289063,14.444336 21.754883,14.035156 C 18.150391,15.03125 14.766602,16.226563 11.817383,17.601563 C 12.137695,17.970703 12.514648,18.336914 12.954102,18.695312 z M 67.088867,49.69043 C 66.895508,49.151367 66.674805,48.620117 66.420898,48.098633 C 65.264648,49.15332 63.883789,50.194336 62.239258,51.168945 C 62.491211,51.831055 62.694336,52.510742 62.84082,53.202148 C 64.575195,52.040039 65.967773,50.852539 67.088867,49.69043 z M 70.969727,42.05957 C 70.62793,42.791992 70.186524,43.592773 69.62207,44.430664 C 69.770508,44.956055 69.870117,45.461914 69.932617,45.950195 C 70.518555,44.932617 70.911133,44.000977 71.180664,43.204102 C 71.12793,42.84668 71.057617,42.463867 70.969727,42.05957 z M 70.99707,28.077148 C 70.915039,27.735352 70.829102,27.394531 70.735352,27.055664 C 70.686523,26.936523 70.62793,26.818359 70.567383,26.702148 C 70.719727,27.597656 70.682617,28.228516 70.682617,28.518555 C 70.682617,29.103516 70.444336,30.668945 69.358398,32.578125 C 69.856445,33.155273 70.291992,33.75293 70.655273,34.373047 C 71.344726,32.595703 71.323242,31.300781 71.323242,30.923828 C 71.323242,30.354492 71.254883,29.237305 70.99707,28.077148 z M 19.389648,58.188965 C 19.389648,56.604492 19.767578,55.083008 20.460938,53.676758 C 19.568359,53.432617 18.693359,53.176758 17.842773,52.913086 C 17.161133,54.401367 16.791016,55.993164 16.791016,57.653809 C 16.791016,58.399902 16.866211,59.134277 17.011719,59.849121 C 17.901367,60.128418 18.794922,60.370606 19.682617,60.577637 C 19.490234,59.804199 19.389648,59.005371 19.389648,58.188965 z M 62.930664,58.187012 C 62.838867,58.70459 62.71582,59.214355 62.56543,59.716309 C 65.504883,57.106934 67.106445,54.639648 67.80957,53.413086 C 67.836914,53.368164 67.860352,53.321289 67.883789,53.276367 C 67.875977,53.19043 67.866211,53.102539 67.856445,53.014648 C 66.760742,54.629883 65.110352,56.436523 62.930664,58.187012 z M 56.319336,7.8046875 C 57.756836,8.390625 59.069336,9.1162109 60.225586,10 C 60.168945,9.9101562 60.104492,9.8212891 60.026367,9.7373047 C 58.868164,8.6962891 57.643555,7.7294922 56.354492,6.8457031 C 56.02832,6.6425781 55.686523,6.4521484 55.327148,6.274414 C 55.860352,6.75 56.200195,7.2617188 56.319336,7.8046875 z M 5.9179688,16.766602 C 5.8173829,16.920898 5.7148438,17.075195 5.6152344,17.230469 C 5.6679688,17.165039 5.7265625,17.097656 5.7861328,17.030273 C 5.8251953,16.939453 5.8701172,16.851563 5.9179688,16.766602 z M 64.897461,21.103516 C 65.860352,21.606445 66.737305,22.145508 67.508789,22.722656 C 67.674805,22.174805 67.758789,21.611328 67.758789,21.03125 C 67.758789,20.674805 67.905273,19.859375 66.75293,17.824219 C 66.133789,16.807617 65.467773,15.824219 64.75293,14.876953 C 64.743164,14.867187 64.735352,14.857422 64.725586,14.847656 C 65.24707,15.679687 65.762695,17.076172 65.762695,18.037109 C 65.762695,18.96582 65.524414,20.023437 64.897461,21.103516 z M 7.9619141,21.453125 C 7.5107422,21.111328 7.1181641,20.768555 6.7900391,20.424805 C 5.2353516,21.49707 3.9375,22.644531 2.9589844,23.860352 C 2.9511719,24.051758 2.9472656,24.249024 2.9472656,24.455078 C 2.9472656,24.839844 2.9853515,25.22461 3.0576172,25.606445 C 4.2578125,24.267578 5.8945313,22.830078 7.9619141,21.453125 z M 3.421875,51.875977 C 4.2587891,53.651367 5.2363281,55.34668 6.3388672,56.948731 C 5.7421875,55.991211 5.2470703,54.995117 4.8613281,53.967774 C 4.2685547,53.237305 3.7871094,52.530273 3.421875,51.875977 z M 1.3193359,26.867188 C 1.0947265,27.674805 0.8974609,28.492188 0.7265625,29.323242 C 0.8183594,29.004883 0.9599609,28.65625 1.1494141,28.28418 C 1.1328125,27.791016 1.2080078,27.320312 1.3193359,26.867188 z M 0.3173828,40.024414 C 0.211914,39.674805 0.1328125,39.327149 0.0839844,38.981445 C 0.1435547,39.860352 0.2324219,40.733398 0.3535157,41.594727 C 0.2939453,41.069336 0.2841797,40.545898 0.3173828,40.024414 z "
     style="fill:#0096d7"
     id="path23" /></g>
</svg>