<?xml version="1.0" encoding="UTF-8" standalone="no"?>
<!-- Created with Inkscape (http://www.inkscape.org/) -->

<svg
   xmlns:dc="http://purl.org/dc/elements/1.1/"
   xmlns:cc="http://creativecommons.org/ns#"
   xmlns:rdf="http://www.w3.org/1999/02/22-rdf-syntax-ns#"
   xmlns:svg="http://www.w3.org/2000/svg"
   xmlns="http://www.w3.org/2000/svg"
   xmlns:sodipodi="http://sodipodi.sourceforge.net/DTD/sodipodi-0.dtd"
   xmlns:inkscape="http://www.inkscape.org/namespaces/inkscape"
   id="svg3084"
   version="1.1"
   inkscape:version="0.48.2 r9819"
   width="447.9"
   height="480.65"
   xml:space="preserve"
   sodipodi:docname="basho-logo.eps"><metadata
     id="metadata3090"><rdf:RDF><cc:Work
         rdf:about=""><dc:format>image/svg+xml</dc:format><dc:type
           rdf:resource="http://purl.org/dc/dcmitype/StillImage" /><dc:title></dc:title></cc:Work></rdf:RDF></metadata><defs
     id="defs3088" /><sodipodi:namedview
     pagecolor="#ffffff"
     bordercolor="#666666"
     borderopacity="1"
     objecttolerance="10"
     gridtolerance="10"
     guidetolerance="10"
     inkscape:pageopacity="0"
     inkscape:pageshadow="2"
     inkscape:window-width="640"
     inkscape:window-height="480"
     id="namedview3086"
     showgrid="false"
     inkscape:zoom="0.49100177"
     inkscape:cx="223.95"
     inkscape:cy="240.325"
     inkscape:window-x="0"
     inkscape:window-y="0"
     inkscape:window-maximized="0"
     inkscape:current-layer="g3092" /><g
     id="g3092"
     inkscape:groupmode="layer"
     inkscape:label="ink_ext_XXXXXX"
     transform="matrix(1.25,0,0,-1.25,0,480.65)"><g
       id="g3094"
       transform="scale(0.1,0.1)"><g
         id="g3096"
         transform="scale(10,10)"><text
           transform="matrix(1,0,0,-1,0,37.3031)"
           id="text3098"><tspan
             style="fill:#595c61;fill-opacity:1;fill-rule:nonzero;stroke:none;font-family:Century Gothic;font-variant:normal;font-weight:bold;font-size:121.649;writing-mode:lr;-inkscape-font-specification:CenturyGothic-Bold"
             x="0 77.87460487 158.18202442 209.26718383 277.40311719"
             y="0"
             sodipodi:role="line"
             id="tspan3100">basho</tspan></text>
</g><path
         d="m 784.867,3133.54 c 89.668,132.91 208.176,247.32 350.653,333.79 l -24.3,200.8 c 0,0 -0.64,159.07 -156.282,173.03 -155.704,13.94 -362.286,-12.94 -362.286,-12.94 0,0 -65.812,-6.4 -106.64,-47.01 l 0,-0.03 c -40.598,-40.79 -47.043,-106.56 -47.043,-106.56 0,0 -26.836,-206.59 -12.891,-362.33 13.996,-155.64 172.988,-156.28 172.988,-156.28 l 185.801,-22.47"
         style="fill:#595c61;fill-opacity:1;fill-rule:nonzero;stroke:none"
         id="path3102" /><path
         d="m 1074.48,3427.26 -2.15,19.44 c 0,0 0.42,77.49 -75.275,83.52 -75.821,6.07 -176.563,-7.97 -176.563,-7.97 0,0 -32.078,-3.42 -52.097,-23.41 l 0,-0.02 176.375,-176.33 c 40.07,37.97 83.71,72.61 129.71,104.77"
         style="fill:#fbc076;fill-opacity:1;fill-rule:nonzero;stroke:none"
         id="path3104" /><path
         d="m 820.57,3194.91 8.821,-1 c 35.195,45.41 73.281,88.64 115.379,128.58 l -176.375,176.33 c -20,-20.02 -23.399,-52.12 -23.399,-52.12 0,0 -14.141,-100.71 -7.891,-176.52 5.957,-75.7 83.465,-75.27 83.465,-75.27"
         style="fill:#f68b11;fill-opacity:1;fill-rule:nonzero;stroke:none"
         id="path3106" /><path
         d="m 2648.11,2855.66 c 197.28,-509.77 -55.88,-1083.14 -565.75,-1280.55 -509.72,-197.39 -1082.969,55.84 -1280.43,565.61 -197.442,509.76 55.8,1083.13 565.7,1280.54 509.64,197.42 1082.98,-55.83 1280.48,-565.6"
         style="fill:#ffffff;fill-opacity:1;fill-rule:nonzero;stroke:none"
         id="path3108" /><path
         d="M 1398,3342.79 C 1038.89,3203.91 819.078,2861.05 818.977,2497.96 l 0,0 c 0.015,-108.71 19.707,-219.14 61.41,-326.85 l 0,0 c 138.923,-358.97 481.763,-578.8 844.803,-578.88 l 0,0 c 108.69,0 219.08,19.66 326.77,61.37 l 0,0 c 359.07,138.89 578.88,481.82 578.99,844.96 l 0,0 c -0.03,108.67 -19.67,219.07 -61.33,326.74 l 0,0 c -139,358.99 -481.87,578.81 -844.86,578.9 l 0,0 c -108.68,-0.02 -219.07,-19.68 -326.76,-61.41 l 0,0 z m 327.19,-1918.83 c -430.61,-0.08 -836.772,260.85 -1001.733,686.38 l 0,0 c -49.297,127.27 -72.769,258.58 -72.75,387.62 l 0,0 c -0.102,430.64 260.871,836.86 686.533,1001.75 l 0,0 c 127.23,49.32 258.52,72.77 387.52,72.75 l 0,0 c 430.59,0.11 836.77,-260.85 1001.79,-686.4 l 0,0 -78.43,-30.4 78.45,30.36 c 49.24,-127.23 72.64,-258.48 72.64,-387.46 l 0,0 c 0.09,-430.67 -260.83,-836.95 -686.48,-1001.9 l 0,0 c -127.2,-49.27 -258.43,-72.7 -387.37,-72.7 l 0,0 c -0.05,0 -0.12,0 -0.17,0 l 0,0"
         style="fill:#595c61;fill-opacity:1;fill-rule:nonzero;stroke:none"
         id="path3110" /><path
         d="m 1711.12,1999.81 c -49.57,30.97 -165.54,-5.2 -166.27,124.94 0,0 504.69,42.03 609.71,126.14 0,0 0,-527.17 -443.44,-251.08"
         style="fill:#595c61;fill-opacity:1;fill-rule:nonzero;stroke:none"
         id="path3112" /><path
         d="m 2558.74,2455 c -2.53,-4.06 -1.4,-9.33 -2.18,-14.14 -28.93,-195.88 -137.8,-503.62 -229.23,-123.1 0,0 191.01,74.24 237.79,252.54 0,0 24.97,-59.9 -6.38,-115.3"
         style="fill:#595c61;fill-opacity:1;fill-rule:nonzero;stroke:none"
         id="path3114" /><path
         d="m 838.402,2234.21 c 0,0 50.098,425.27 205.978,13.71 0,0 65.98,-184.68 178.08,-257.28 0,0 -118.68,1319.34 527.83,949.89 0,0 403.95,-286.71 339.64,127.41 0,0 -55.97,426.72 372.74,-35 0,0 -316.62,554.06 -1062.13,342.99 0,0 -772.821,-249.93 -562.138,-1141.72"
         style="fill:#595c61;fill-opacity:1;fill-rule:nonzero;stroke:none"
         id="path3116" /></g></g></svg>