<?xml version="1.0" standalone="yes"?>
<svg xmlns="http://www.w3.org/2000/svg" width="1481" height="740">
<path style="fill:#ffffff; stroke:none;" d="M0 0L0 740L611 740L589 730L595 720C602.792 724.321 610.546 729.865 620 728.684C626.347 727.892 633.49 721.926 628.397 715.225C620.05 704.242 600.16 710.77 593.05 695.996C587.055 683.539 597.474 670.433 610 668.326C621.964 666.312 630.611 671.149 641 676L635 686C627.909 682.269 620.405 677.631 612 679.344C606.306 680.505 601.775 686.351 605.742 691.786C611.573 699.775 626.962 698.44 634.96 704.221C650.7 715.598 640.323 737.478 623 739C629.678 741.802 639.784 740 647 740L701 740C688.074 731.826 676.51 726.922 673.465 710C668.493 682.378 697.292 660.127 723 670.069C755.178 682.512 752.559 733.67 717 739C729.883 744.406 752.962 740 767 740L885 740C878.989 737.087 872.984 736.265 868.213 730.957C855.24 716.522 861 686.958 861 669L874 669C874 682.983 869.064 708.758 876.367 720.96C882.403 731.044 900.879 730.684 906.08 719.985C912.458 706.867 908 683.419 908 669L921 669C921 690.726 928.843 736.202 897 739C902.951 741.497 911.58 740 918 740L965 740L1127 740C1114.04 733.723 1102.66 729.462 1098.04 714C1089.61 685.74 1118.03 661.359 1145 669.44C1179.07 679.648 1176.89 733.62 1141 739C1146.22 741.189 1153.38 740 1159 740L1195 740L1323 740L1301 730L1307 720C1314.79 724.321 1322.55 729.865 1332 728.684C1338.35 727.892 1345.49 721.926 1340.4 715.225C1331.65 703.714 1311.55 711.11 1304.53 694.999C1299.23 682.825 1310.16 670.317 1322 668.326C1333.96 666.312 1342.61 671.15 1353 676L1347 686C1339.91 682.269 1332.4 677.631 1324 679.344C1318.31 680.505 1313.78 686.351 1317.74 691.786C1323.46 699.624 1338.19 698.156 1346 703.649C1362.17 715.027 1353.5 737.375 1335 739C1346.46 743.807 1366.53 740 1379 740L1481 740L1481 0L0 0z"/>
<path style="fill:#ac202e; stroke:none;" d="M344 494C344 477.443 341.466 461.128 334.36 446C313.29 401.151 252.289 394.437 214 421.039C169.689 451.825 161.057 521.9 201 559.96C211.617 570.076 226.511 576.868 241 579C228.545 585.633 213.883 588.494 200 590.155C182.832 592.21 165.693 592.664 149 587.255C86.7793 567.091 69.8199 493.13 88.5154 437C104.803 388.1 149.691 345.463 201 335.605C222.408 331.492 253.309 356.604 271.581 332.985C280.867 320.981 266.216 311.2 256 308.025C232.846 300.83 211.822 309.737 196.468 285C162.893 230.909 230.26 166.958 285 190.337C296.511 195.253 306.946 204.854 307.91 218C308.754 229.518 295.416 255.885 317 255.92C328.806 255.939 337.7 246.507 343.127 237C354.619 216.87 356.224 191.403 347.547 170C327.523 120.609 260.967 118.259 220 139.259C169.304 165.246 136.894 226.356 159.453 282C164.29 293.93 172.775 302.483 181 312C160.463 312.939 137.128 323.69 119 332.753C61.99 361.254 16.9668 409.485 3.66512 473C-13.868 556.72 35.6008 642.364 122 656.919C146.362 661.023 171.8 660.288 196 655.449C225.737 649.502 253.553 637.113 278 619.116C312.738 593.542 339.828 558.817 361.799 522C382.735 486.919 399.028 449.166 413.424 411C419.077 396.012 426.387 380.609 430 365C441.951 369.968 456.321 374.35 469 369C449.736 415.333 418.003 474.47 433.44 526C440.561 549.77 462.702 556.546 485 555.025C522.992 552.433 563.253 520.342 584 490C589.769 496.259 595.252 502.153 603 506.029C640.093 524.588 682.228 494.291 706.075 468C715.205 457.934 726.266 445.931 731 433C737.447 444.329 741.746 456.101 754 462.676C788.018 480.93 826.23 438.86 844.127 415C849.318 408.079 854.56 400.982 858 393C863.12 401.836 864.448 411.693 873.015 418.471C905.228 443.955 958.157 414.764 981.961 390.961C1015.96 356.959 1024.44 310.736 1035.63 266C1038.94 252.747 1040.98 238.649 1046.28 226C1053.32 209.228 1063.31 192.376 1077 180.174C1082.6 175.178 1091.06 169.084 1099 170.863C1118.34 175.195 1105.45 208.976 1102 221C1092.98 252.449 1078.16 288.01 1078 321C1077.93 335.403 1080.85 352.114 1094 360.441C1104.69 367.207 1117.67 365.024 1129 361.329C1154.86 352.893 1175.57 331.243 1191.37 310L1207 287L1211.31 303C1232.41 349.465 1296.91 312.283 1311 279C1311.58 287.714 1306.54 297.656 1304.14 306L1285.58 368C1283.74 374.264 1280.14 392.611 1273.78 395.396C1267.93 397.954 1257.26 394.384 1251 394.035L1184 387.17C1118.85 380.97 1045.73 382.967 986 412.753C956.299 427.566 928.428 449.35 917.671 482C914.695 491.031 913 500.482 913 510C913 584.619 1008.43 597.371 1065 595.985C1140.27 594.141 1210.73 558.394 1260.83 503C1280.9 480.815 1294.52 455.828 1310.62 431.019C1315.02 424.242 1322.86 426 1330 426C1345.49 426 1360.87 424.061 1376 420.79C1410.93 413.239 1442.53 394.578 1464.35 366C1469.96 358.647 1477.12 349.097 1479.44 340C1480.45 336.069 1480.26 330.39 1475.89 328.604C1470.11 326.238 1464.85 330.928 1461.46 335.004C1452.58 345.684 1445.91 357.402 1435 366.385C1404.14 391.789 1364.85 398 1326 398C1359.44 311.786 1378.41 219.291 1401.88 130L1419.88 62C1421.74 54.9262 1428.15 42.2014 1425.25 35.0587C1422.01 27.0659 1409.43 33.8577 1404 35.6667C1395.31 38.5634 1384.45 41.7211 1378.42 49.0934C1372.97 55.7431 1371.57 66.9481 1369 75C1345.24 36.364 1297.21 62.5237 1274.17 88C1243.73 121.659 1225.03 163.179 1211.34 206C1205.59 224.024 1205.17 246.722 1195.55 263C1187.25 277.03 1175.56 290.133 1162 299.251C1157.59 302.216 1150.61 306.793 1145 305.526C1127.87 301.659 1138.48 268.571 1141.13 258L1164.8 165C1167.42 151.107 1166.73 132.653 1154.83 122.927C1127.51 100.612 1087.23 135.496 1070.16 155C1065.14 160.73 1060.06 166.99 1057 174C1056.3 166.063 1060.69 156.649 1062.86 149C1063.82 145.624 1066.03 140.735 1063.82 137.434C1060.32 132.232 1051.21 137.174 1047 138.811C1031.54 144.819 1016.83 150.174 1010.7 167C989.831 224.227 986.904 287.83 962.85 344C956.164 359.612 947.488 377.156 932 385.687C925.687 389.164 916.329 392.839 910.34 386.772C899.649 375.941 906.201 354.79 908.801 342C917.013 301.596 928.031 260.671 939.29 221L947.626 188C948.601 184.048 950.993 178.009 948.806 174.149C945.329 168.011 934.645 174.655 930 176.308C910.079 183.398 898.496 190.274 894 212C869.828 171.21 817.541 208.769 796.286 233C773.235 259.279 755.794 291.025 744.344 324L727.038 386C722.688 398.102 714.061 409.678 706.575 420C694.738 436.321 666.047 471.304 642 457.633C621.923 446.219 622.526 416.757 623.911 397C624.382 390.269 623.67 381.075 626.988 375.001C633.048 363.911 647.801 354.62 656.286 345C718.045 274.973 766.585 194.795 787.651 103C792.799 80.5667 796.584 55.9949 793.271 33C791.864 23.2367 788.966 11.9191 780.96 5.39355C768.105 -5.08313 750.358 4.05023 739 12.0363C711.077 31.6696 691.62 62.8601 673.343 91C648.497 129.254 628.905 171.732 612 214C590.715 267.22 572.719 323.7 567.17 381C565.64 396.792 564.419 414.179 566.286 430C567.316 438.73 572.419 452.618 570.798 461C567.974 475.602 542.501 490.356 529 492.675C503.198 497.108 487.04 477.923 487 453C486.936 413.078 498.834 380.962 514.861 345C520.107 333.229 529.771 318.51 525.146 305.004C521.138 293.301 505.198 294.162 497.093 300.708C488.45 307.69 484.553 320.461 477.384 328.985C471.263 336.264 461.963 342.71 452 341.153C448.831 340.658 443.812 339.671 443.118 335.892L446.576 317C449.86 298.783 448.936 254.351 420 258.214C399.336 260.972 397.33 290.067 399.286 306C400.588 316.598 403.855 326.951 407.344 337L412.487 352C412.597 365.136 403.917 382.021 398.989 394C384.98 428.053 368.286 465.931 344 494z"/>
<path style="fill:#ffffff; stroke:none;" d="M633 341C648.449 326.56 660.645 307.251 672.72 290C706.804 241.307 734.189 186.977 751.28 130C756.919 111.201 761.032 91.6779 761 72C760.99 65.5222 760.778 53.763 752.957 51.5293C745.552 49.4143 738.911 58.0291 735.015 63C723.329 77.9078 713.83 95.7459 706.139 113C683.557 163.661 663.455 214.472 648.576 268C642.154 291.102 633.498 316.888 633 341M1328 86.5293C1313.83 89.7822 1303 102.743 1295 114C1275.59 141.334 1259.98 177.477 1256.05 211C1254.04 228.14 1249.29 267.457 1278 262.674C1294.88 259.862 1307.09 244.742 1315.4 231C1334.35 199.658 1342.98 162.277 1351.63 127C1356.02 109.077 1353.64 80.645 1328 86.5293M1055.33 174.667L1055.67 175.333L1055.33 174.667M854 224.529C839.973 227.748 829.408 240.843 821.589 252C802.527 279.203 789.569 314.067 785.289 347C783.177 363.255 780.994 400.53 807 396.56C823.989 393.967 836.541 379.914 845.186 366C863.207 336.997 871.778 299.309 878.486 266C881.985 248.627 878.432 218.923 854 224.529M1263 424L1227 420.91L1156 417C1111.12 417 1061.84 412.633 1022 438.054C989.614 458.72 977.529 512.165 1007.04 540.91C1028.85 562.154 1060.56 563.371 1089 561.086C1151.3 556.079 1204.78 518.075 1239 467C1247.71 453.991 1258.63 439.182 1263 424M251 433.518C204.741 443.328 196.112 515.59 230.001 543.671C243.975 555.251 261.339 554.008 277.999 550.55C291.305 547.789 299.728 528.522 304.396 517C317.411 484.871 309.357 433.017 266 433L251 433.518z"/>
<path style="fill:#ac202e; stroke:none;" d="M707 667.443C700.749 668.185 694.322 669.611 689 673.108C655.775 694.941 677.693 743.835 715 739.826C760.56 734.931 752.523 662.036 707 667.443M1130 667.432C1124.04 668.217 1118.08 669.772 1113 673.108C1079.23 695.301 1101.71 745.22 1140 739.7C1185 733.213 1175.23 661.476 1130 667.432M595 720L589 730C599.104 736.104 608.791 741.05 621 739.829C634.962 738.433 647.459 727.059 641.867 712.004C636.071 696.403 617.197 702.079 607.228 692.606C601.586 687.245 606.547 680.595 613 679.348C621.048 677.793 627.898 683.415 635 686L641 676C631.161 669.511 619.861 665.945 608 668.519C595.599 671.209 587.62 683.869 592.613 695.996C598.824 711.079 618.465 704.986 627.682 715.225C633.205 721.36 626.216 727.56 620 728.492C610.393 729.934 603.307 723.144 595 720M1307 720L1301 730C1312.31 736.97 1323.39 741.914 1337 739.192C1349.08 736.776 1359.18 724.81 1353.99 712C1347.74 696.574 1329.25 702.133 1319.23 692.606C1313.59 687.245 1318.55 680.595 1325 679.348C1333.05 677.793 1339.9 683.415 1347 686L1353 676C1343.16 669.512 1331.86 665.945 1320 668.519C1307.89 671.146 1299.27 683.994 1304.53 695.996C1311.21 711.22 1330.26 704.755 1339.68 715.225C1345.21 721.36 1338.22 727.56 1332 728.492C1322.39 729.934 1315.31 723.144 1307 720M779 669L779 739L829 739L829 727L792 727L792 669L779 669M861 669C861 686.584 856.208 712.318 865.363 727.999C875.545 745.44 906.927 743.581 916.775 727C925.799 711.808 921 686.041 921 669L908 669C908 683.244 912.309 706 906.08 718.996C900.491 730.66 882.817 731.03 876.367 719.985C869.237 707.775 874 682.905 874 669L861 669M955 669L955 681L977 681L977 739L990 739L990 681L1012 681L1012 669L955 669M1049 669L1049 739L1062 739L1062 669L1049 669M1203 669L1203 739L1215 739L1215 690L1240.58 723C1244.14 727.573 1248.03 735.094 1253.17 737.972L1264 739L1264 669L1251 669L1251 715C1237.17 699.942 1225.11 669 1203 669z"/>
<path style="fill:#ffffff; stroke:none;" d="M704 679.529C673.6 686.533 684.886 734.388 716 727.61C745.215 721.245 733.361 672.765 704 679.529M1128 679.529C1097.55 686.546 1108.82 734.678 1140 727.471C1168.77 720.821 1157.25 672.79 1128 679.529z"/>
</svg>
