<?xml version="1.0" encoding="UTF-8" standalone="no"?>
<!-- Created with Inkscape (http://www.inkscape.org/) -->

<svg
   xmlns:dc="http://purl.org/dc/elements/1.1/"
   xmlns:cc="http://creativecommons.org/ns#"
   xmlns:rdf="http://www.w3.org/1999/02/22-rdf-syntax-ns#"
   xmlns:svg="http://www.w3.org/2000/svg"
   xmlns="http://www.w3.org/2000/svg"
   xmlns:sodipodi="http://sodipodi.sourceforge.net/DTD/sodipodi-0.dtd"
   xmlns:inkscape="http://www.inkscape.org/namespaces/inkscape"
   id="svg3004"
   version="1.1"
   inkscape:version="0.48.2 r9819"
   width="176.8625"
   height="55.7375"
   xml:space="preserve"
   sodipodi:docname="riak-logo.eps"><metadata
     id="metadata3010"><rdf:RDF><cc:Work
         rdf:about=""><dc:format>image/svg+xml</dc:format><dc:type
           rdf:resource="http://purl.org/dc/dcmitype/StillImage" /><dc:title></dc:title></cc:Work></rdf:RDF></metadata><defs
     id="defs3008" /><sodipodi:namedview
     pagecolor="#ffffff"
     bordercolor="#666666"
     borderopacity="1"
     objecttolerance="10"
     gridtolerance="10"
     guidetolerance="10"
     inkscape:pageopacity="0"
     inkscape:pageshadow="2"
     inkscape:window-width="1177"
     inkscape:window-height="810"
     id="namedview3006"
     showgrid="false"
     inkscape:zoom="1.9902466"
     inkscape:cx="88.431252"
     inkscape:cy="27.86875"
     inkscape:window-x="143"
     inkscape:window-y="8"
     inkscape:window-maximized="0"
     inkscape:current-layer="g3012" /><g
     id="g3012"
     inkscape:groupmode="layer"
     inkscape:label="ink_ext_XXXXXX"
     transform="matrix(1.25,0,0,-1.25,0,55.7375)"><g
       id="g3014"
       transform="scale(0.1,0.1)"><path
         d="m 65.2148,273.48 c 0,0 73.4612,-11.507 145.5972,-43.746 72.243,-32.289 106.727,-57.429 106.727,-57.429"
         style="fill:none;stroke:#595c61;stroke-opacity:1;stroke-width:15.384;stroke-linecap:butt;stroke-linejoin:miter;stroke-miterlimit:10;stroke-dasharray:none"
         id="path3016" /><path
         d="m 65.2148,273.48 c 0,0 54.5702,-18.855 116.3442,-68.125 64.929,-51.793 92.097,-136.6597 92.097,-136.6597"
         style="fill:none;stroke:#595c61;stroke-opacity:1;stroke-width:15.384;stroke-linecap:butt;stroke-linejoin:miter;stroke-miterlimit:10;stroke-dasharray:none"
         id="path3018" /><path
         d="m 65.2148,273.48 c 0,0 41.6132,-15.351 77.3362,-93.726 C 179.078,99.6211 172.48,26.0312 172.48,26.0312"
         style="fill:none;stroke:#595c61;stroke-opacity:1;stroke-width:15.384;stroke-linecap:butt;stroke-linejoin:miter;stroke-miterlimit:10;stroke-dasharray:none"
         id="path3020" /><path
         d="m 88.375,275.004 c 0,-12.617 -10.2383,-22.856 -22.8555,-22.856 -12.6172,0 -22.8554,10.239 -22.8554,22.856 0,12.617 10.2382,22.855 22.8554,22.855 12.6172,0 22.8555,-10.238 22.8555,-22.855"
         style="fill:#f68b11;fill-opacity:1;fill-rule:nonzero;stroke:none"
         id="path3022" /><path
         d="m 191.375,317.668 c 0,-12.617 -10.238,-22.856 -22.855,-22.856 -12.614,0 -22.856,10.239 -22.856,22.856 0,12.613 10.242,22.855 22.856,22.855 12.617,0 22.855,-10.242 22.855,-22.855"
         style="fill:#595c61;fill-opacity:1;fill-rule:nonzero;stroke:none"
         id="path3024" /><path
         d="m 293.77,274.395 c 0,-12.618 -10.243,-22.856 -22.856,-22.856 -12.617,0 -22.855,10.238 -22.855,22.856 0,12.617 10.238,22.855 22.855,22.855 12.613,0 22.856,-10.238 22.856,-22.855"
         style="fill:#595c61;fill-opacity:1;fill-rule:nonzero;stroke:none"
         id="path3026" /><path
         d="m 336.434,172 c 0,-12.613 -10.243,-22.855 -22.856,-22.855 -12.617,0 -22.855,10.242 -22.855,22.855 0,12.617 10.238,22.855 22.855,22.855 12.613,0 22.856,-10.238 22.856,-22.855"
         style="fill:#595c61;fill-opacity:1;fill-rule:nonzero;stroke:none"
         id="path3028" /><path
         d="m 293.77,69.6094 c 0,-12.6172 -10.243,-22.8555 -22.856,-22.8555 -12.617,0 -22.855,10.2383 -22.855,22.8555 0,12.6172 10.238,22.8554 22.855,22.8554 12.613,0 22.856,-10.2382 22.856,-22.8554"
         style="fill:#595c61;fill-opacity:1;fill-rule:nonzero;stroke:none"
         id="path3030" /><path
         d="m 191.375,26.9453 c 0,-12.6172 -10.238,-22.85546 -22.855,-22.85546 -12.614,0 -22.856,10.23826 -22.856,22.85546 0,12.6172 10.242,22.8555 22.856,22.8555 12.617,0 22.855,-10.2383 22.855,-22.8555"
         style="fill:#595c61;fill-opacity:1;fill-rule:nonzero;stroke:none"
         id="path3032" /><path
         d="m 88.375,69 c 0,-12.6172 -10.2383,-22.8555 -22.8555,-22.8555 -12.6172,0 -22.8554,10.2383 -22.8554,22.8555 0,12.6172 10.2382,22.8555 22.8554,22.8555 C 78.1367,91.8555 88.375,81.6172 88.375,69"
         style="fill:#595c61;fill-opacity:1;fill-rule:nonzero;stroke:none"
         id="path3034" /><path
         d="m 45.7109,172 c 0,-12.613 -10.2382,-22.855 -22.8554,-22.855 C 10.2383,149.145 0,159.387 0,172 c 0,12.617 10.2383,22.855 22.8555,22.855 12.6172,0 22.8554,-10.238 22.8554,-22.855"
         style="fill:#595c61;fill-opacity:1;fill-rule:nonzero;stroke:none"
         id="path3036" /><path
         d="m 391.141,324 65.812,0 0,-38.531 c 7.125,15.187 16.594,26.719 28.406,34.593 11.813,7.876 24.75,11.813 38.813,11.813 9.937,0 20.344,-2.625 31.219,-7.875 l -23.907,-66.094 c -9,4.5 -16.406,6.75 -22.218,6.75 -11.813,0 -21.844,-7.312 -30.094,-21.937 -8.063,-14.625 -12.094,-43.313 -12.094,-86.063 l 0.281,-14.906 0,-123.75 -76.218,0 0,306"
         style="fill:#595c61;fill-opacity:1;fill-rule:nonzero;stroke:none"
         id="path3038" /><path
         d="m 622.609,450 c 13.5,0 25.032,-4.875 34.594,-14.625 9.75,-9.75 14.625,-21.563 14.625,-35.437 0,-13.688 -4.781,-25.407 -14.344,-35.157 -9.562,-9.562 -21,-14.343 -34.312,-14.343 -13.688,0 -25.406,4.874 -35.156,14.624 -9.563,9.938 -14.344,21.938 -14.344,36 0,13.5 4.781,25.032 14.344,34.594 9.562,9.563 21.093,14.344 34.593,14.344 m -38.531,-126 77.063,0 0,-306 -77.063,0 0,306"
         style="fill:#595c61;fill-opacity:1;fill-rule:nonzero;stroke:none"
         id="path3040" /><path
         d="m 957.016,324 76.504,0 0,-306 -76.504,0 0,32.3438 c -15,-14.25 -30.094,-24.5626 -45.282,-30.9376 -15,-6.1874 -31.312,-9.2812 -48.937,-9.2812 -39.563,0 -73.781,15.2812 -102.656,45.8438 -28.875,30.75 -43.313,68.9062 -43.313,114.4692 0,47.25 13.969,85.968 41.906,116.156 27.938,30.187 61.875,45.281 101.813,45.281 18.375,0 35.625,-3.469 51.75,-10.406 16.125,-6.938 31.031,-17.344 44.719,-31.219 l 0,33.75 m -80.719,-63 c -23.813,0 -43.594,-8.438 -59.344,-25.312 -15.75,-16.688 -23.625,-38.157 -23.625,-64.407 0,-26.437 7.969,-48.187 23.906,-65.25 16.125,-17.0622 35.907,-25.5935 59.344,-25.5935 24.188,0 44.25,8.3437 60.188,25.0315 15.937,16.875 23.906,38.906 23.906,66.093 0,26.626 -7.969,48.188 -23.906,64.688 -15.938,16.5 -36.094,24.75 -60.469,24.75"
         style="fill:#595c61;fill-opacity:1;fill-rule:nonzero;stroke:none"
         id="path3042" /><path
         d="m 1112.83,442.125 76.78,0 0,-244.406 113.06,126.281 96.19,0 L 1267.23,177.188 1414.89,18 l -95.34,0 -129.94,140.906 0,-140.906 -76.78,0 0,424.125"
         style="fill:#595c61;fill-opacity:1;fill-rule:nonzero;stroke:none"
         id="path3044" /></g></g></svg>