<?xml version="1.0" encoding="UTF-8" standalone="no"?>
<!-- Created with Inkscape (http://www.inkscape.org/) -->

<svg
   xmlns:dc="http://purl.org/dc/elements/1.1/"
   xmlns:cc="http://creativecommons.org/ns#"
   xmlns:rdf="http://www.w3.org/1999/02/22-rdf-syntax-ns#"
   xmlns:svg="http://www.w3.org/2000/svg"
   xmlns="http://www.w3.org/2000/svg"
   xmlns:sodipodi="http://sodipodi.sourceforge.net/DTD/sodipodi-0.dtd"
   xmlns:inkscape="http://www.inkscape.org/namespaces/inkscape"
   id="svg2985"
   version="1.1"
   inkscape:version="0.48.2 r9819"
   width="658.75"
   height="480"
   xml:space="preserve"
   sodipodi:docname="scheduler.pdf"><metadata
     id="metadata2991"><rdf:RDF><cc:Work
         rdf:about=""><dc:format>image/svg+xml</dc:format><dc:type
           rdf:resource="http://purl.org/dc/dcmitype/StillImage" /><dc:title></dc:title></cc:Work></rdf:RDF></metadata><defs
     id="defs2989"><clipPath
       clipPathUnits="userSpaceOnUse"
       id="clipPath3001"><path
         d="M 0,0 527,0 527,384 0,384 0,0 z"
         id="path3003" /></clipPath></defs><sodipodi:namedview
     pagecolor="#ffffff"
     bordercolor="#666666"
     borderopacity="1"
     objecttolerance="10"
     gridtolerance="10"
     guidetolerance="10"
     inkscape:pageopacity="0"
     inkscape:pageshadow="2"
     inkscape:window-width="1339"
     inkscape:window-height="988"
     id="namedview2987"
     showgrid="false"
     inkscape:zoom="1.3906433"
     inkscape:cx="329.375"
     inkscape:cy="240"
     inkscape:window-x="0"
     inkscape:window-y="0"
     inkscape:window-maximized="0"
     inkscape:current-layer="g2993" /><g
     id="g2993"
     inkscape:groupmode="layer"
     inkscape:label="scheduler"
     transform="matrix(1.25,0,0,-1.25,0,480)"><g
       id="g2995" /><g
       id="g2997"><g
         id="g2999"
         clip-path="url(#clipPath3001)"><path
           d="M 0,384 527,384 527,0 0,0 0,384 z"
           style="fill:#ffffff;fill-opacity:0;fill-rule:evenodd;stroke:none"
           id="path3005" /><g
           id="g3007"
           transform="matrix(7.874016e-5,0,0,-7.874016e-5,1.75,383.875)"><path
             d="M 1188169,18248 C 2411833,34671.8 3644838,-0.1124268 4868502,100365.5 c 211106,16423.4 519358,0 722990,52920 354956,89416.6 532434,20073.2 1003218,43795.8 156928,281023.5 -123300,1162415.7 -162532,1596724.7 -39232,434309 -37364,704384 -78464,1003656 -72860,275549 -61650,538324 -171874,797450 -57914,135037 -44836,430659 -44836,430659 -29892,151461 -70992,677011 -338143,706209 -347483,36496 -887390,27372 -1234873,40146 -463311,135037 -614635,71168 -1238610,40146 -325065,-87592 -584744,31022 -917281,-21898 -551116,10949 -1087287,-76642 -1636534.6,-58394 -145718.8,5474 -340010.6,5474 -485729.4,29197 C 184950.8,4779225 0,4771926 0,4771926 c 14945.52,-63869 14945.52,-135038 42968.37,-200731 22418.27,-45621 80332.13,-74818 102750.43,-122263 85936.7,-206206 63518.5,-434310 151323.4,-640516 28022.8,-279198 29891,-677011 61650.2,-1020078 31759.3,-343068 85936.8,-735406 134509.7,-1036503 28022.9,-301097 35495.7,-500003 151323.5,-764603.1 50441,-240877.2 153191.5,-370440.2 246601,-605842.9 14945.5,-40146.4 7472.7,-98540.9 50441.2,-122263.5 C 1145200,140511.9 1057396,217154.5 1188169,18248 z"
             style="fill:none;stroke:#00a8aa;stroke-opacity:1;stroke-width:38100;stroke-linecap:butt;stroke-linejoin:round;stroke-miterlimit:10;stroke-dasharray:none"
             id="path3009" /></g><g
           id="g3011"
           transform="translate(90.7,378.775)"><text
             transform="matrix(1,0,0,-1,0,-24)"
             id="text3013"><tspan
               style="fill:#000000;fill-opacity:1;fill-rule:nonzero;stroke:#000000;stroke-opacity:1;stroke-width:0.576;stroke-linecap:butt;stroke-linejoin:miter;stroke-miterlimit:10;stroke-dasharray:none;font-family:Bradley Hand ITC;font-variant:normal;font-weight:normal;font-size:24;writing-mode:lr;-inkscape-font-specification:BradleyHandITC"
               x="0 14.3784 23.3304 30.6312 42.5136 57.4656"
               y="0"
               sodipodi:role="line"
               id="tspan3015">Erlang</tspan></text>
</g><g
           id="g3017"
           transform="translate(90.7,378.775)"><text
             transform="matrix(1,0,0,-1,77.48479,-24)"
             id="text3019"><tspan
               style="fill:#000000;fill-opacity:1;fill-rule:nonzero;stroke:#000000;stroke-opacity:1;stroke-width:0.576;stroke-linecap:butt;stroke-linejoin:miter;stroke-miterlimit:10;stroke-dasharray:none;font-family:Bradley Hand ITC;font-variant:normal;font-weight:normal;font-size:24;writing-mode:lr;-inkscape-font-specification:BradleyHandITC"
               x="0 15.1656"
               y="0"
               sodipodi:role="line"
               id="tspan3021">VM</tspan></text>
</g><g
           id="g3023"
           transform="translate(90.7,378.775)" /><g
           id="g3025"
           transform="matrix(7.874016e-5,0,0,-7.874016e-5,18.87504,340.2499)"><path
             d="m 4201478,36512.66 c -302758,1587.5 -1139626,-6350 -1679449,-4762.5 -539822,1587.5 -1262442,-6350 -1568056.4,14287.5 -305613.9,20637.5 -214215.4,73025.04 -265627,104775.04 -28562.2,22225 -14281.2,63500 -42843.2,85725 -11424.8,11112.5 -17137.2,96837.5 -28562,107950 -11424.8,11112.5 -22849.7,82550 -22849.7,82550 -28562.1,25400 -59980.3,42862.5 -68548.9,61912.5 -8568.6,19050 19993.4,3175 8568.6,50800.4 -2856.2,44450 -117104.4,134937.5 -85686.2,234950 C 479842.5,874713.1 0.00868988,1193800 731188.6,1138238 5603876,1096963 4729876,1471613 4835556,441325.2 c 8568,-123825 -51412,-101600 17137,-174625 11425,-50800 39987,-101600 39987,-152400 0,-28575.04 51412,-71437.54 -39987,-87312.54 C 4735588,7937.663 4567072,19050.16 4432830,22225.16 4184341,68262.66 4201478,0.1627197 4201478,36512.66 z"
             style="fill:none;stroke:#4349aa;stroke-opacity:1;stroke-width:38100;stroke-linecap:butt;stroke-linejoin:round;stroke-miterlimit:10;stroke-dasharray:none"
             id="path3027" /></g><g
           id="g3029"
           transform="translate(90.3959,327.5249)"><text
             transform="matrix(1,0,0,-1,0,-24)"
             id="text3031"><tspan
               style="fill:#000000;fill-opacity:1;fill-rule:nonzero;stroke:#000000;stroke-opacity:1;stroke-width:0.576;stroke-linecap:butt;stroke-linejoin:miter;stroke-miterlimit:10;stroke-dasharray:none;font-family:Bradley Hand ITC;font-variant:normal;font-weight:normal;font-size:24;writing-mode:lr;-inkscape-font-specification:BradleyHandITC"
               x="0 17.2848 27.1752 39.492 48.1056 61.2312 74.9064 82.2072 90.8208 99.7728 105.8904 120.7272"
               y="0"
               sodipodi:role="line"
               id="tspan3033">Scheduler #1</tspan></text>
</g><g
           id="g3035"
           transform="translate(90.3959,327.5249)" /><g
           id="g3037"
           transform="matrix(7.874016e-5,0,0,-7.874016e-5,9.875039,239.875)"><path
             d="m 4177674,36512.33 c -301042,1587.5 -1133170,-6350 -1669934,-4762.5 -536764,1587.5 -1255290,-6350 -1559172.3,14287.5 -303882.5,20637.5 -213001.8,73024.97 -264122.2,104774.97 -28400.2,22225 -14200.1,63500 -42600.3,85725 -11360.1,11112.5 -17040.1,96837.5 -28400.3,107950 -11360,11112.5 -22720.1,82550 -22720.1,82550 -28400.2,25400 -59640.5,42862.5 -68160.6,61912.5 -8520,19050 19880.2,3175 8520.1,50800 -2840.1,44450 -116441,134937.5 -85200.7,234950 -14200.1,73025 8520.1,147637.5 2840,201612.5 -5680,53974.7 -48280.3,101599.7 -34080.3,123824.7 14200.2,22225 68160.6,3175 119281,9525 51120.5,6350 -533924.29560928,139700 193121.6,28575 C 5572125,1096962 4791118,1473200 4896200,442912.3 c 8520,-123825 -85200,-98425 -17040,-171450 11360,-50800 -14200,-106362.5 -14200,-157162.5 0,-28574.97 51120,-71437.47 -39761,-87312.47 -116441,-19049.998 -284003,-7937.5 -417483,-4762.5 -247082,46037.5 -230042,-22224.9986401 -230042,14287.5 z"
             style="fill:none;stroke:#4349aa;stroke-opacity:1;stroke-width:38100;stroke-linecap:butt;stroke-linejoin:round;stroke-miterlimit:10;stroke-dasharray:none"
             id="path3039" /></g><g
           id="g3041"
           transform="translate(67.95,225.6499)"><text
             transform="matrix(1,0,0,-1,0,-24)"
             id="text3043"><tspan
               style="fill:#000000;fill-opacity:1;fill-rule:nonzero;stroke:#000000;stroke-opacity:1;stroke-width:0.576;stroke-linecap:butt;stroke-linejoin:miter;stroke-miterlimit:10;stroke-dasharray:none;font-family:Bradley Hand ITC;font-variant:normal;font-weight:normal;font-size:24;writing-mode:lr;-inkscape-font-specification:BradleyHandITC"
               x="0 17.2848 27.1752 39.492 48.1056 61.2312 74.9064 82.2072 90.8208 99.7728 105.8904 120.7272"
               y="0"
               sodipodi:role="line"
               id="tspan3045">Scheduler #2</tspan></text>
</g><g
           id="g3047"
           transform="translate(67.95,225.6499)" /><g
           id="g3049"
           transform="matrix(7.874016e-5,0,0,-7.874016e-5,54.87504,139.7499)"><path
             d="M -0.01553345,-0.03106689 1.001846,304800"
             style="fill:none;stroke:#000000;stroke-opacity:1;stroke-width:57150;stroke-linecap:butt;stroke-linejoin:round;stroke-miterlimit:10;stroke-dasharray:57150,57150;stroke-dashoffset:0"
             id="path3051" /></g><g
           id="g3053"
           transform="matrix(7.874016e-5,0,0,-7.874016e-5,251.5,323.8749)"><path
             d="M 984.2422,838200.1 C 492.0242,695562.2 0,552924.8 18699.83,426933.7 37399.46,300942.5 97435.52,153408.9 113183,82253.17 c 15747.1,-71155.35 0,-68544.27 0,-82253.11970703"
             style="fill:none;stroke:#c6e6e9;stroke-opacity:1;stroke-width:38100;stroke-linecap:butt;stroke-linejoin:round;stroke-miterlimit:10;stroke-dasharray:none"
             id="path3055" /></g><g
           id="g3057"
           transform="matrix(7.874016e-5,0,0,-7.874016e-5,255.0194,260.3749)"><path
             d="M 0.1652222,20637.94 C 307705.6,14790.62 617287.1,8943.303 844313.6,8255.36 1071340,7567.418 1232698,17886.17 1362160,16510.28 1491621,15134.4 1555413,7567.418 1621082,0.05029297"
             style="fill:none;stroke:#c6e6e9;stroke-opacity:1;stroke-width:38100;stroke-linecap:butt;stroke-linejoin:round;stroke-miterlimit:10;stroke-dasharray:none"
             id="path3059" /></g><g
           id="g3061"
           transform="matrix(7.874016e-5,0,0,-7.874016e-5,378.7382,325.8749)"><path
             d="M 0.00915527,827087.9 C 1934,755097.4 4512.524,683106.4 19339.53,617894.9 34166.53,552683.4 78003,483275.2 88962.02,435819.2 99921.04,388363.6 75424.09,375773.2 85094.04,333159.6 94763.99,290546.3 125062.5,235665.1 146980.6,180138.7 168898.6,124612.2 204999.1,30023.02 216603.1,0.05029297"
             style="fill:none;stroke:#c6e6e9;stroke-opacity:1;stroke-width:38100;stroke-linecap:butt;stroke-linejoin:round;stroke-miterlimit:10;stroke-dasharray:none"
             id="path3063" /></g><g
           id="g3065"
           transform="matrix(7.874016e-5,0,0,-7.874016e-5,256.5083,330.2499)"><path
             d="M 0.05749512,46037.8 C 22046,42403.53 38212.84,26653.32 130805.6,23019.05 c 92593.2,-3634.66 323340.4,0 423282,0 99941.2,0 98471.5,2423.11 176367.1,0 C 808350.3,20595.94 918580.1,12115.06 1021461,8480.79 1124342,4846.128 1213995,-0.08728027 1347740,1211.467 c 133746,1211.554 377720,9692.043 476192,12115.153"
             style="fill:none;stroke:#c6e6e9;stroke-opacity:1;stroke-width:38100;stroke-linecap:butt;stroke-linejoin:round;stroke-miterlimit:10;stroke-dasharray:none"
             id="path3067" /></g><g
           id="g3069"
           transform="translate(266.5509,326.6499)"><text
             transform="matrix(1,0,0,-1,0,-24)"
             id="text3071"><tspan
               style="fill:#000000;fill-opacity:1;fill-rule:nonzero;stroke:#000000;stroke-opacity:1;stroke-width:0.576;stroke-linecap:butt;stroke-linejoin:miter;stroke-miterlimit:10;stroke-dasharray:none;font-family:Bradley Hand ITC;font-variant:normal;font-weight:normal;font-size:24;writing-mode:lr;-inkscape-font-specification:BradleyHandITC"
               x="0 8.952 22.6272 37.5792 43.6968 57.6648 71.34 79.9536 93.6288"
               y="0"
               sodipodi:role="line"
               id="tspan3073">run queue</tspan></text>
</g><g
           id="g3075"
           transform="translate(266.5509,326.6499)" /><g
           id="g3077"
           transform="matrix(7.874016e-5,0,0,-7.874016e-5,272.3454,298.6249)"><path
             d="M -0.05847168,15240.21 C 277816.3,13970.13 557102.8,13970.13 714385.4,15240.21 871667.7,16509.89 859908.3,25400.05 943694.2,22859.89 1027480,20320.13 1171533,3809.895 1217101,0.05029297"
             style="fill:none;stroke:#000000;stroke-opacity:1;stroke-width:19050;stroke-linecap:butt;stroke-linejoin:round;stroke-miterlimit:10;stroke-dasharray:none"
             id="path3079" /></g><g
           id="g3081"
           transform="matrix(7.874016e-5,0,0,-7.874016e-5,270.8564,288.1249)"><path
             d="M 0.1054688,15240.21 C 277816.5,13970.13 557102.9,13970.13 714385.6,15240.21 871667.8,16509.89 859908.5,25400.05 943694.4,22859.89 1027480,20320.13 1171533,3809.895 1217101,0.05029297"
             style="fill:none;stroke:#000000;stroke-opacity:1;stroke-width:19050;stroke-linecap:butt;stroke-linejoin:round;stroke-miterlimit:10;stroke-dasharray:none"
             id="path3083" /></g><g
           id="g3085"
           transform="matrix(7.874016e-5,0,0,-7.874016e-5,267.8785,277.1249)"><path
             d="M 0.07092285,15240.21 C 278209.1,13970.13 557890.1,13970.13 715394.4,15240.21 872899.1,16509.89 861123.1,25400.05 945027.2,22859.89 1028931,20320.13 1173188,3809.895 1218820,0.05029297"
             style="fill:none;stroke:#000000;stroke-opacity:1;stroke-width:19050;stroke-linecap:butt;stroke-linejoin:round;stroke-miterlimit:10;stroke-dasharray:none"
             id="path3087" /></g><g
           id="g3089"
           transform="matrix(7.874016e-5,0,0,-7.874016e-5,272.3454,298.6249)"><path
             d="M -0.05847168,15240.21 C 277816.3,13970.13 557102.8,13970.13 714385.4,15240.21 871667.7,16509.89 859908.3,25400.05 943694.2,22859.89 1027480,20320.13 1171533,3809.895 1217101,0.05029297"
             style="fill:none;stroke:#000000;stroke-opacity:1;stroke-width:19050;stroke-linecap:butt;stroke-linejoin:round;stroke-miterlimit:10;stroke-dasharray:none"
             id="path3091" /></g><g
           id="g3093"
           transform="matrix(7.874016e-5,0,0,-7.874016e-5,270.8564,288.1249)"><path
             d="M 0.1054688,15240.21 C 277816.5,13970.13 557102.9,13970.13 714385.6,15240.21 871667.8,16509.89 859908.5,25400.05 943694.4,22859.89 1027480,20320.13 1171533,3809.895 1217101,0.05029297"
             style="fill:none;stroke:#000000;stroke-opacity:1;stroke-width:19050;stroke-linecap:butt;stroke-linejoin:round;stroke-miterlimit:10;stroke-dasharray:none"
             id="path3095" /></g><g
           id="g3097"
           transform="matrix(7.874016e-5,0,0,-7.874016e-5,260.2983,277.2499)"><path
             d="M 0.1660156,20954.95 C 332359.7,19208.93 666478.1,19208.93 854639.5,20954.95 1042801,22701.35 1028733,34925.02 1128968,31432.6 1229203,27940.18 1401538,5238.853 1456052,0.02514648"
             style="fill:none;stroke:#000000;stroke-opacity:1;stroke-width:19050;stroke-linecap:butt;stroke-linejoin:round;stroke-miterlimit:10;stroke-dasharray:none"
             id="path3099" /></g><g
           id="g3101"
           transform="matrix(7.874016e-5,0,0,-7.874016e-5,263.2763,299.2499)"><path
             d="M 0.08813477,20002.68 C 332359.7,18336.12 666478,18336.12 854639.4,20002.68 1042801,21669.63 1028733,33337.91 1128968,30004.39 1229203,26670.49 1401538,5000.883 1456052,0.02514648"
             style="fill:none;stroke:#000000;stroke-opacity:1;stroke-width:19050;stroke-linecap:butt;stroke-linejoin:round;stroke-miterlimit:10;stroke-dasharray:none"
             id="path3103" /></g><g
           id="g3105"
           transform="matrix(7.874016e-5,0,0,-7.874016e-5,261.7873,289.3749)"><path
             d="M 0.00207519,20002.71 C 332359.6,18336.14 666477.9,18336.14 854639.3,20002.71 1042801,21669.66 1028733,33337.94 1128968,30004.42 1229203,26670.52 1401538,5000.908 1456052,0.05029297"
             style="fill:none;stroke:#000000;stroke-opacity:1;stroke-width:19050;stroke-linecap:butt;stroke-linejoin:round;stroke-miterlimit:10;stroke-dasharray:none"
             id="path3107" /></g><g
           id="g3109"
           transform="translate(67.95,225.6499)"><text
             transform="matrix(1,0,0,-1,0,-24)"
             id="text3111"><tspan
               style="fill:#000000;fill-opacity:1;fill-rule:nonzero;stroke:#000000;stroke-opacity:1;stroke-width:0.576;stroke-linecap:butt;stroke-linejoin:miter;stroke-miterlimit:10;stroke-dasharray:none;font-family:Bradley Hand ITC;font-variant:normal;font-weight:normal;font-size:24;writing-mode:lr;-inkscape-font-specification:BradleyHandITC"
               x="0 17.2848 27.1752 39.492 48.1056 61.2312 74.9064 82.2072 90.8208 99.7728 105.8904 120.7272"
               y="0"
               sodipodi:role="line"
               id="tspan3113">Scheduler #2</tspan></text>
</g><g
           id="g3115"
           transform="translate(67.95,225.6499)" /><g
           id="g3117"
           transform="matrix(7.874016e-5,0,0,-7.874016e-5,-15.5,112.4999)"><path
             d="M 4479990,38639.54 C 4157162,40319.48 3264819,31919.6 2689212,33599.54 2113605,35279.57 1343083,26879.7 1017210,48719.35 691337.6,70559.01 788795,125998.3 733975.2,159597.8 c -30455.4,23519.7 -15227.7,67199.1 -45683.1,90718.7 -12182.2,11759.9 -18273.2,102478.6 -30455.4,114238.4 -12182.1,11759.9 -24364.3,87358.7 -24364.3,87358.7 -30455.4,26879.7 -63956.3,45359.5 -73093,65519.2 -9136.6,20159.7 21318.8,3359.9 9136.7,53759.2 -3045.6,47039.3 -124867.2,142798 -91366.3,248636.5 C 511650.8,925667 0,1263342 779658.3,1204543 5975350,1160864 5043414,1557338 5156100,467033.4 c 9136,-131038.1 -54820,-107518.4 18273,-184797.3 12182,-53759.3 42637,-107518.5 42637,-161277.7 0,-30239.67 54820,-75599.02 -42637,-92398.77 C 5049506,8399.912 4869819,20159.76 4726678,23519.73 4461716,72239.04 4479990,0.03771973 4479990,38639.54 z"
             style="fill:none;stroke:#4349aa;stroke-opacity:1;stroke-width:38100;stroke-linecap:butt;stroke-linejoin:round;stroke-miterlimit:10;stroke-dasharray:none"
             id="path3119" /></g><g
           id="g3121"
           transform="translate(60.28465,99.37567)"><text
             transform="matrix(1,0,0,-1,0,-24)"
             id="text3123"><tspan
               style="fill:#000000;fill-opacity:1;fill-rule:nonzero;stroke:#000000;stroke-opacity:1;stroke-width:0.576;stroke-linecap:butt;stroke-linejoin:miter;stroke-miterlimit:10;stroke-dasharray:none;font-family:Bradley Hand ITC;font-variant:normal;font-weight:normal;font-size:24;writing-mode:lr;-inkscape-font-specification:BradleyHandITC"
               x="0 17.2848 27.1752 39.492 48.1056 61.2312 74.9064 82.2072 90.8208 99.7728 105.8904 120.7272"
               y="0"
               sodipodi:role="line"
               id="tspan3125">Scheduler #N</tspan></text>
</g><g
           id="g3127"
           transform="translate(60.28465,99.37567)" /><g
           id="g3129"
           transform="matrix(7.874016e-5,0,0,-7.874016e-5,242.375,222.7499)"><path
             d="M 984.3236,838200 C 492.1056,695562.4 0.08135986,552924.8 18699.91,426933.6 37399.54,300942.4 97435.8,153408.8 113182.9,82253.28 c 15747.1,-71155.73 0,-68544.46 0,-82253.31106689"
             style="fill:none;stroke:#c6e6e9;stroke-opacity:1;stroke-width:38100;stroke-linecap:butt;stroke-linejoin:round;stroke-miterlimit:10;stroke-dasharray:none"
             id="path3131" /></g><g
           id="g3133"
           transform="matrix(7.874016e-5,0,0,-7.874016e-5,245.8944,159.2499)"><path
             d="M -0.00341797,20638.05 C 307705.2,14790.54 617287.1,8943.027 844313.6,8255.085 1071340,7567.143 1232698,17886.28 1362159,16510.39 1491621,15134.51 1555413,7567.143 1621082,-0.03106689"
             style="fill:none;stroke:#c6e6e9;stroke-opacity:1;stroke-width:38100;stroke-linecap:butt;stroke-linejoin:round;stroke-miterlimit:10;stroke-dasharray:none"
             id="path3135" /></g><g
           id="g3137"
           transform="matrix(7.874016e-5,0,0,-7.874016e-5,369.6132,224.7499)"><path
             d="M -0.1032715,827088.1 C 1933.887,755097.1 4512.412,683106.1 19339.41,617894.8 34166.41,552683.3 78002.89,483275.1 88961.91,435819.1 99920.93,388363.3 75423.98,375773 85093.93,333159.5 94763.88,290546.2 125062.4,235665.2 146980.5,180138.6 168898.5,124611.9 204999,30023.14 216603,-0.03106689"
             style="fill:none;stroke:#c6e6e9;stroke-opacity:1;stroke-width:38100;stroke-linecap:butt;stroke-linejoin:round;stroke-miterlimit:10;stroke-dasharray:none"
             id="path3139" /></g><g
           id="g3141"
           transform="matrix(7.874016e-5,0,0,-7.874016e-5,247.3834,229.125)"><path
             d="M 0.0826416,46038.16 C 22046.02,42403.5 38213.06,26653.69 130805.7,23019.03 c 92593.1,-3634.47 323340.3,0 423281.9,0 99941.2,0 98471.5,2423.1 176367.2,0 C 808350.4,20596.11 918580.1,12115.43 1021461,8480.766 1124342,4846.104 1213995,0.08135986 1347740,1211.635 c 133746,1211.554 377720,9692.235 476192,12115.155"
             style="fill:none;stroke:#c6e6e9;stroke-opacity:1;stroke-width:38100;stroke-linecap:butt;stroke-linejoin:round;stroke-miterlimit:10;stroke-dasharray:none"
             id="path3143" /></g><g
           id="g3145"
           transform="translate(257.4259,225.525)"><text
             transform="matrix(1,0,0,-1,0,-24)"
             id="text3147"><tspan
               style="fill:#000000;fill-opacity:1;fill-rule:nonzero;stroke:#000000;stroke-opacity:1;stroke-width:0.576;stroke-linecap:butt;stroke-linejoin:miter;stroke-miterlimit:10;stroke-dasharray:none;font-family:Bradley Hand ITC;font-variant:normal;font-weight:normal;font-size:24;writing-mode:lr;-inkscape-font-specification:BradleyHandITC"
               x="0 8.952 22.6272 37.5792 43.6968 57.6648 71.34 79.9536 93.6288"
               y="0"
               sodipodi:role="line"
               id="tspan3149">run queue</tspan></text>
</g><g
           id="g3151"
           transform="translate(257.4259,225.525)" /><g
           id="g3153"
           transform="matrix(7.874016e-5,0,0,-7.874016e-5,263.2205,197.4999)"><path
             d="M 0.07910156,15239.93 C 277816.5,13970.05 557102.9,13970.05 714385.6,15239.93 871667.8,16510.01 859908.4,25399.97 943694.4,22860.01 1027480,20320.05 1171533,3810.008 1217101,-0.03106689"
             style="fill:none;stroke:#000000;stroke-opacity:1;stroke-width:19050;stroke-linecap:butt;stroke-linejoin:round;stroke-miterlimit:10;stroke-dasharray:none"
             id="path3155" /></g><g
           id="g3157"
           transform="matrix(7.874016e-5,0,0,-7.874016e-5,261.7315,186.9999)"><path
             d="M 0.1306152,15239.93 C 277816.5,13970.05 557102.9,13970.05 714385.6,15239.93 871667.9,16510.01 859908.5,25399.97 943694.4,22860.01 1027480,20320.05 1171533,3810.008 1217101,-0.03106689"
             style="fill:none;stroke:#000000;stroke-opacity:1;stroke-width:19050;stroke-linecap:butt;stroke-linejoin:round;stroke-miterlimit:10;stroke-dasharray:none"
             id="path3159" /></g><g
           id="g3161"
           transform="matrix(7.874016e-5,0,0,-7.874016e-5,258.7535,175.9999)"><path
             d="M -0.04150391,15239.93 C 278208.9,13970.05 557889.9,13970.05 715394.2,15239.93 872899,16510.01 861123,25399.97 945027.2,22860.01 1028931,20320.05 1173188,3810.008 1218820,-0.03106689"
             style="fill:none;stroke:#000000;stroke-opacity:1;stroke-width:19050;stroke-linecap:butt;stroke-linejoin:round;stroke-miterlimit:10;stroke-dasharray:none"
             id="path3163" /></g><g
           id="g3165"
           transform="matrix(7.874016e-5,0,0,-7.874016e-5,263.2205,197.4999)"><path
             d="M 0.07910156,15239.93 C 277816.5,13970.05 557102.9,13970.05 714385.6,15239.93 871667.8,16510.01 859908.4,25399.97 943694.4,22860.01 1027480,20320.05 1171533,3810.008 1217101,-0.03106689"
             style="fill:none;stroke:#000000;stroke-opacity:1;stroke-width:19050;stroke-linecap:butt;stroke-linejoin:round;stroke-miterlimit:10;stroke-dasharray:none"
             id="path3167" /></g><g
           id="g3169"
           transform="matrix(7.874016e-5,0,0,-7.874016e-5,261.7315,186.9999)"><path
             d="M 0.1306152,15239.93 C 277816.5,13970.05 557102.9,13970.05 714385.6,15239.93 871667.9,16510.01 859908.5,25399.97 943694.4,22860.01 1027480,20320.05 1171533,3810.008 1217101,-0.03106689"
             style="fill:none;stroke:#000000;stroke-opacity:1;stroke-width:19050;stroke-linecap:butt;stroke-linejoin:round;stroke-miterlimit:10;stroke-dasharray:none"
             id="path3171" /></g><g
           id="g3173"
           transform="matrix(7.874016e-5,0,0,-7.874016e-5,251.1734,176.125)"><path
             d="M -0.00262451,20955 C 332359.8,19208.79 666478.1,19208.79 854639.1,20955 1042800,22701.41 1028732,34925.08 1128968,31432.66 1229204,27940.04 1401538,5238.909 1456052,0.08135986"
             style="fill:none;stroke:#000000;stroke-opacity:1;stroke-width:19050;stroke-linecap:butt;stroke-linejoin:round;stroke-miterlimit:10;stroke-dasharray:none"
             id="path3175" /></g><g
           id="g3177"
           transform="matrix(7.874016e-5,0,0,-7.874016e-5,254.1513,198.125)"><path
             d="M -0.02429199,20002.93 C 332359.5,18335.98 666477.9,18335.98 854639.3,20002.93 1042801,21669.69 1028733,33338.16 1128968,30004.26 1229203,26670.55 1401538,5000.745 1456052,0.08135986"
             style="fill:none;stroke:#000000;stroke-opacity:1;stroke-width:19050;stroke-linecap:butt;stroke-linejoin:round;stroke-miterlimit:10;stroke-dasharray:none"
             id="path3179" /></g><g
           id="g3181"
           transform="matrix(7.874016e-5,0,0,-7.874016e-5,252.6624,188.2499)"><path
             d="M 0.08343506,20002.82 C 332359.8,18335.87 666478.2,18335.87 854639.2,20002.82 1042801,21669.58 1028732,33338.05 1128968,30004.14 1229204,26670.43 1401538,5000.633 1456052,-0.03106689"
             style="fill:none;stroke:#000000;stroke-opacity:1;stroke-width:19050;stroke-linecap:butt;stroke-linejoin:round;stroke-miterlimit:10;stroke-dasharray:none"
             id="path3183" /></g><g
           id="g3185"
           transform="matrix(7.874016e-5,0,0,-7.874016e-5,244.625,93.12488)"><path
             d="M 985.0988,838199.9 C 492.687,695562.3 0.08135986,552924.7 18715.61,426933.6 37431.32,300942.4 97518.16,153408.8 113278.6,82253.23 c 15760.5,-71155.63 0,-68544.45 0,-82253.30470703"
             style="fill:none;stroke:#c6e6e9;stroke-opacity:1;stroke-width:38100;stroke-linecap:butt;stroke-linejoin:round;stroke-miterlimit:10;stroke-dasharray:none"
             id="path3187" /></g><g
           id="g3189"
           transform="matrix(7.874016e-5,0,0,-7.874016e-5,248.1473,29.62488)"><path
             d="M 0.00982666,20638 C 307964,14790.56 617805.9,8943.119 845023.4,8255.177 1072241,7567.258 1233734,17886.25 1363305,16510.39 1492875,15134.53 1556721,7567.258 1622445,-0.01220703"
             style="fill:none;stroke:#c6e6e9;stroke-opacity:1;stroke-width:38100;stroke-linecap:butt;stroke-linejoin:round;stroke-miterlimit:10;stroke-dasharray:none"
             id="path3191" /></g><g
           id="g3193"
           transform="matrix(7.874016e-5,0,0,-7.874016e-5,371.9702,95.12488)"><path
             d="M 0.1160889,827087.9 C 1935.657,755097.1 4516.507,683106.2 19355.91,617894.8 34195.32,552683.2 78068.61,483275 89036.93,435819.2 100005.2,388363.2 75487.76,375772.9 85165.85,333159.5 94843.55,290546.1 125167.7,235665.1 147104.3,180138.5 169041,124611.9 205171.7,30023 216785,-0.07470703"
             style="fill:none;stroke:#c6e6e9;stroke-opacity:1;stroke-width:38100;stroke-linecap:butt;stroke-linejoin:round;stroke-miterlimit:10;stroke-dasharray:none"
             id="path3195" /></g><g
           id="g3197"
           transform="matrix(7.874016e-5,0,0,-7.874016e-5,249.6376,99.49991)"><path
             d="M -0.01361084,46038.02 C 22064.53,42403.46 38245.13,26653.64 130915.8,23019.08 c 92670.7,-3634.66 323612.1,0 423637.3,0 100025.7,0 98554.9,2423.01 176516,0 C 809029.9,20595.97 919352.2,12115.29 1022320,8480.722 1125287,4846.157 1215016,0.03771973 1348874,1211.592 c 133857,1211.457 378038,9692.138 476592,12115.248"
             style="fill:none;stroke:#c6e6e9;stroke-opacity:1;stroke-width:38100;stroke-linecap:butt;stroke-linejoin:round;stroke-miterlimit:10;stroke-dasharray:none"
             id="path3199" /></g><g
           id="g3201"
           transform="translate(259.6825,95.89993)"><text
             transform="matrix(1,0,0,-1,0,-24)"
             id="text3203"><tspan
               style="fill:#000000;fill-opacity:1;fill-rule:nonzero;stroke:#000000;stroke-opacity:1;stroke-width:0.576;stroke-linecap:butt;stroke-linejoin:miter;stroke-miterlimit:10;stroke-dasharray:none;font-family:Bradley Hand ITC;font-variant:normal;font-weight:normal;font-size:24;writing-mode:lr;-inkscape-font-specification:BradleyHandITC"
               x="0 8.952 22.6272 37.5792 43.6968 57.6648 71.34 79.9536 93.6288"
               y="0"
               sodipodi:role="line"
               id="tspan3205">run queue</tspan></text>
</g><g
           id="g3207"
           transform="translate(259.6825,95.89993)" /><g
           id="g3209"
           transform="matrix(7.874016e-5,0,0,-7.874016e-5,265.4879,67.87488)"><path
             d="M 0.1585693,15239.95 C 278050.2,13969.97 557571.6,13969.97 714986,15239.95 872400.8,16510.03 860631.4,25399.99 944487.9,22860.03 1028344,20319.97 1172518,3810.027 1218124,-0.01220703"
             style="fill:none;stroke:#000000;stroke-opacity:1;stroke-width:19050;stroke-linecap:butt;stroke-linejoin:round;stroke-miterlimit:10;stroke-dasharray:none"
             id="path3211" /></g><g
           id="g3213"
           transform="matrix(7.874016e-5,0,0,-7.874016e-5,263.9978,57.37488)"><path
             d="M 0.09472656,15240 C 278050.2,13969.97 557571.5,13969.97 714985.9,15240 872400.8,16509.98 860631.3,25399.99 944487.8,22859.98 1028344,20319.97 1172518,3809.978 1218124,-0.01220703"
             style="fill:none;stroke:#000000;stroke-opacity:1;stroke-width:19050;stroke-linecap:butt;stroke-linejoin:round;stroke-miterlimit:10;stroke-dasharray:none"
             id="path3215" /></g><g
           id="g3217"
           transform="matrix(7.874016e-5,0,0,-7.874016e-5,261.0173,46.37488)"><path
             d="M 0.1416016,15240 C 278442.8,13969.97 558359.1,13969.97 715996,15240 873633.2,16509.98 861847.1,25399.99 945821.9,22859.98 1029797,20319.97 1174175,3809.978 1219845,-0.01220703"
             style="fill:none;stroke:#000000;stroke-opacity:1;stroke-width:19050;stroke-linecap:butt;stroke-linejoin:round;stroke-miterlimit:10;stroke-dasharray:none"
             id="path3219" /></g><g
           id="g3221"
           transform="matrix(7.874016e-5,0,0,-7.874016e-5,265.4879,67.87488)"><path
             d="M 0.1585693,15239.95 C 278050.2,13969.97 557571.6,13969.97 714986,15239.95 872400.8,16510.03 860631.4,25399.99 944487.9,22860.03 1028344,20319.97 1172518,3810.027 1218124,-0.01220703"
             style="fill:none;stroke:#000000;stroke-opacity:1;stroke-width:19050;stroke-linecap:butt;stroke-linejoin:round;stroke-miterlimit:10;stroke-dasharray:none"
             id="path3223" /></g><g
           id="g3225"
           transform="matrix(7.874016e-5,0,0,-7.874016e-5,263.9978,57.37488)"><path
             d="M 0.09472656,15240 C 278050.2,13969.97 557571.5,13969.97 714985.9,15240 872400.8,16509.98 860631.3,25399.99 944487.8,22859.98 1028344,20319.97 1172518,3809.978 1218124,-0.01220703"
             style="fill:none;stroke:#000000;stroke-opacity:1;stroke-width:19050;stroke-linecap:butt;stroke-linejoin:round;stroke-miterlimit:10;stroke-dasharray:none"
             id="path3227" /></g><g
           id="g3229"
           transform="matrix(7.874016e-5,0,0,-7.874016e-5,253.4308,46.49991)"><path
             d="M -0.01611328,20954.99 C 332639,19208.73 667037.9,19208.73 855357.4,20954.99 1043677,22701.21 1029597,34924.98 1129917,31432.46 1230236,27939.98 1402716,5238.706 1457276,-0.02478027"
             style="fill:none;stroke:#000000;stroke-opacity:1;stroke-width:19050;stroke-linecap:butt;stroke-linejoin:round;stroke-miterlimit:10;stroke-dasharray:none"
             id="path3231" /></g><g
           id="g3233"
           transform="matrix(7.874016e-5,0,0,-7.874016e-5,256.4113,68.49991)"><path
             d="M -0.06298828,20002.82 C 332638.9,18335.87 667037.9,18335.87 855357.4,20002.82 1043677,21669.68 1029597,33337.96 1129917,30004.15 1230236,26670.34 1402716,5000.639 1457276,-0.02478027"
             style="fill:none;stroke:#000000;stroke-opacity:1;stroke-width:19050;stroke-linecap:butt;stroke-linejoin:round;stroke-miterlimit:10;stroke-dasharray:none"
             id="path3235" /></g><g
           id="g3237"
           transform="matrix(7.874016e-5,0,0,-7.874016e-5,254.921,58.62488)"><path
             d="M -0.03955078,20002.79 C 332639,18335.88 667037.9,18335.88 855357.4,20002.79 1043677,21669.69 1029597,33337.97 1129917,30004.21 1230236,26670.4 1402716,5000.7 1457276,-0.01220703"
             style="fill:none;stroke:#000000;stroke-opacity:1;stroke-width:19050;stroke-linecap:butt;stroke-linejoin:round;stroke-miterlimit:10;stroke-dasharray:none"
             id="path3239" /></g><g
           id="g3241"
           transform="matrix(7.874016e-5,0,0,-7.874016e-5,380.625,189.2499)"><path
             d="M 18689.06,1535663 275431.1,1303338 407193.6,1181100 531812.4,1061244 647699.9,945356.2 751681.1,834231.2 841374.9,727075 l 73818.7,-100012.5 29368.8,-48418.7 24606.2,-48418.8 34925.4,-95250 19843,-92075 8732,-87312.5 793,-79375 -1587,-70643.8 -794,-59531.23 1804,-20925.85"
             style="fill:none;stroke:#000000;stroke-opacity:1;stroke-width:19050;stroke-linecap:butt;stroke-linejoin:round;stroke-miterlimit:10;stroke-dasharray:none"
             id="path3243" /></g><path
           d="m 380.625,66.99993 2.619,8.25504 0,0 c 0.167,0.52642 0.7291,0.81779 1.2555,0.65078 l 0,0 c 0.5265,-0.167 0.8178,-0.72914 0.6508,-1.25557 l -1.5821,-4.98699 5.1198,1.07755 0,0 c 0.5404,0.11374 1.0707,-0.23216 1.1845,-0.77261 0,0 0,0 0,0 l 0,0 c 0.1137,-0.54044 -0.2322,-1.07077 -0.7726,-1.18451 l -8.4749,-1.78369 z"
           style="fill:#000000;fill-opacity:1;fill-rule:evenodd;stroke:none"
           id="path3245" /><path
           d="m 462.125,189.2499 3.7052,-7.8279 0,0 c 0.2362,-0.4992 0.0231,-1.0954 -0.4761,-1.3317 l 0,0 c -0.4992,-0.2363 -1.0954,-0.0231 -1.3317,0.4761 l -2.2383,4.7289 -3.0146,-4.2761 0,0 c -0.3182,-0.4514 -0.9421,-0.5593 -1.3935,-0.2411 0,0 0,0 0,0 l 0,0 c -0.4514,0.3182 -0.5594,0.9421 -0.2411,1.3935 l 4.9901,7.0783 z"
           style="fill:#000000;fill-opacity:1;fill-rule:evenodd;stroke:none"
           id="path3247" /><g
           id="g3249"
           transform="matrix(7.874016e-5,0,0,-7.874016e-5,374,185.625)"><path
             d="m 25201.95,115487.6 25598.05,400 32543.75,793.7 37306.25,1587.5 83343.8,2381.3 91281.2,1587.5 93662.5,1587.5 91281.3,0 82550,-2381.3 36512.4,-2381.2 32543.8,-3175 57150,-9525 52387.5,-13493.77 46831.3,-15875 42862.4,-16668.75 73025,-34131.25 34976.6,-15811.24"
             style="fill:none;stroke:#000000;stroke-opacity:1;stroke-width:19050;stroke-linecap:butt;stroke-linejoin:round;stroke-miterlimit:10;stroke-dasharray:none"
             id="path3251" /></g><path
           d="m 374,176.5625 7.548,4.2463 0,0 c 0.4814,0.2708 1.0911,0.1001 1.3619,-0.3812 l 0,0 c 0.2708,-0.4813 0.1001,-1.0911 -0.3812,-1.3619 l -4.5599,-2.5653 4.4775,-2.7065 0,0 c 0.4726,-0.2857 0.6242,-0.9004 0.3385,-1.3731 0,0 0,0 0,0 l 0,0 c -0.2857,-0.4726 -0.9005,-0.6242 -1.3731,-0.3385 L 374,176.5625 z"
           style="fill:#000000;fill-opacity:1;fill-rule:evenodd;stroke:none"
           id="path3253" /><path
           d="m 449.75,185.625 -5.0191,-7.0579 0,0 c -0.3201,-0.4501 -0.9444,-0.5555 -1.3945,-0.2354 l 0,0 c -0.45,0.3201 -0.5555,0.9444 -0.2354,1.3945 l 3.0321,4.2637 -5.2039,0.5406 0,0 c -0.5493,0.0571 -0.9484,0.5487 -0.8913,1.098 0,0 0,0 0,0 l 0,0 c 0.057,0.5493 0.5486,0.9484 1.0979,0.8913 l 8.6142,-0.8948 z"
           style="fill:#000000;fill-opacity:1;fill-rule:evenodd;stroke:none"
           id="path3255" /><g
           id="g3257"
           transform="matrix(7.874016e-5,0,0,-7.874016e-5,384.875,291.375)"><path
             d="m 854202.8,503989.9 -11240.4,-11865 -37306.3,-42862.5 -44450,-50006.3 -49212.5,-55562.5 -53975,-56356.2 -54768.7,-53975 -56356.3,-47625 L 492124.9,146843.6 433387.4,116681.1 369093.6,91281.14 230981.1,52387.39 162718.6,37306.14 100012.4,23812.39 45243.64,11906.14 24374.76,6414.225"
             style="fill:none;stroke:#000000;stroke-opacity:1;stroke-width:19050;stroke-linecap:butt;stroke-linejoin:round;stroke-miterlimit:10;stroke-dasharray:none"
             id="path3259" /></g><path
           d="m 453.5,250.25 -8.3127,2.4295 0,0 c -0.5301,0.1549 -0.8343,0.7103 -0.6793,1.2404 l 0,0 c 0.1549,0.5301 0.7102,0.8342 1.2403,0.6793 l 5.0219,-1.4677 -1.1943,5.0938 0,0 c -0.1261,0.5377 0.2076,1.0758 0.7453,1.2018 0,0 0,0 0,0 l 0,0 c 0.5377,0.1261 1.0758,-0.2076 1.2019,-0.7453 L 453.5,250.25 z"
           style="fill:#000000;fill-opacity:1;fill-rule:evenodd;stroke:none"
           id="path3261" /><path
           d="m 384.875,291.375 8.345,2.3163 0,0 c 0.5322,0.1477 1.0833,-0.164 1.231,-0.6962 l 0,0 c 0.1478,-0.5321 -0.1639,-1.0833 -0.6961,-1.231 l -5.0413,-1.3993 3.6995,-3.6995 0,0 c 0.3905,-0.3905 0.3905,-1.0237 0,-1.4142 0,0 0,0 0,0 l 0,0 c -0.3905,-0.3905 -1.0237,-0.3905 -1.4142,0 l -6.1239,6.1239 z"
           style="fill:#000000;fill-opacity:1;fill-rule:evenodd;stroke:none"
           id="path3263" /><g
           id="g3265"
           transform="matrix(7.874016e-5,0,0,-7.874016e-5,403.125,245.625)"><path
             d="m 1209868,39687.33 c -88708,3175 -179879,-1587.5 -266121.8,9525 -34497.6,4762.5 -103491.8,-9525 -103491.8,-9525 -68994.6,-3175 -125668.6,1587.5 -192199.1,-9525 -36961.3,-6350 -44353.5,6350 -73922.6,-9525 -27104.9,-14287.498 -88707.4,4762.5 -88707.4,4762.5 -14784.4,9525 -32032.9,-25399.9986401 -44353.5,-14287.5 -9856.4,7937.5 0,26987.5 -14784.4,28575 -426287.5124268,57150 -167558,-22225 -295690.8,19050 C 56673.95,128587.3 59138.14,223837.5 41889.58,306387.5 c 4927.99,98425 7392.18,196850.2 14784.37,295275.3 2464.19,25400 59138.25,66675 59138.25,66675 73922.6,-47625 -19712.75,41275.1 59137.9,19050.1 39425.5,-11112.7 96099.5,-4762.5 96099.5,-4762.5 98563.8,3175 197127.2,1587.5 295690.9,9525 64066.3,4762.5 241480.6,-12700 347436.6,4762.5 110883.9,-12700 182341.9,-28575.1 295690.9,-28575.1 27105,-179387.6 0,-371475.3 88707,-542925.5 -27105,-69849.97 -36961,-17462.5 -88707,-85724.97 z"
             style="fill:none;stroke:#000000;stroke-opacity:1;stroke-width:38100;stroke-linecap:butt;stroke-linejoin:round;stroke-miterlimit:10;stroke-dasharray:none"
             id="path3267" /></g><g
           id="g3269"
           transform="translate(414.4919,240.025)"><text
             transform="matrix(1,0,0,-1,0,-18)"
             id="text3271"><tspan
               style="fill:#000000;fill-opacity:1;fill-rule:nonzero;stroke:#000000;stroke-opacity:1;stroke-width:0.432;stroke-linecap:butt;stroke-linejoin:miter;stroke-miterlimit:10;stroke-dasharray:none;font-family:Bradley Hand ITC;font-variant:normal;font-weight:normal;font-size:18;writing-mode:lr;-inkscape-font-specification:BradleyHandITC"
               x="0 15.4944 20.97 31.3938 38.1078 47.0196 53.2854 58.761 66.1086 77.3226"
               y="0"
               sodipodi:role="line"
               id="tspan3273">migration </tspan></text>
</g><g
           id="g3275"
           transform="translate(435.4919,219.025)"><text
             transform="matrix(1,0,0,-1,0,-18)"
             id="text3277"><tspan
               style="fill:#000000;fill-opacity:1;fill-rule:nonzero;stroke:#000000;stroke-opacity:1;stroke-width:0.432;stroke-linecap:butt;stroke-linejoin:miter;stroke-miterlimit:10;stroke-dasharray:none;font-family:Bradley Hand ITC;font-variant:normal;font-weight:normal;font-size:18;writing-mode:lr;-inkscape-font-specification:BradleyHandITC"
               x="0 5.4756 12.8232 23.2488 28.7244"
               y="0"
               sodipodi:role="line"
               id="tspan3279">logic</tspan></text>
</g><g
           id="g3281"
           transform="translate(435.4919,219.025)" /><g
           id="g3283"
           transform="translate(414.4919,240.025)"><text
             transform="matrix(1,0,0,-1,0,-18)"
             id="text3285"><tspan
               style="fill:#000000;fill-opacity:1;fill-rule:nonzero;stroke:#000000;stroke-opacity:1;stroke-width:0.432;stroke-linecap:butt;stroke-linejoin:miter;stroke-miterlimit:10;stroke-dasharray:none;font-family:Bradley Hand ITC;font-variant:normal;font-weight:normal;font-size:18;writing-mode:lr;-inkscape-font-specification:BradleyHandITC"
               x="0 15.4944 20.97 31.3938 38.1078 47.0196 53.2854 58.761 66.1086 77.3226"
               y="0"
               sodipodi:role="line"
               id="tspan3287">migration </tspan></text>
</g><g
           id="g3289"
           transform="translate(435.4919,219.025)"><text
             transform="matrix(1,0,0,-1,0,-18)"
             id="text3291"><tspan
               style="fill:#000000;fill-opacity:1;fill-rule:nonzero;stroke:#000000;stroke-opacity:1;stroke-width:0.432;stroke-linecap:butt;stroke-linejoin:miter;stroke-miterlimit:10;stroke-dasharray:none;font-family:Bradley Hand ITC;font-variant:normal;font-weight:normal;font-size:18;writing-mode:lr;-inkscape-font-specification:BradleyHandITC"
               x="0 5.4756 12.8232 23.2488 28.7244"
               y="0"
               sodipodi:role="line"
               id="tspan3293">logic</tspan></text>
</g><g
           id="g3295"
           transform="translate(435.4919,219.025)" /></g></g></g></svg>